<?xml version="1.0" encoding="UTF-8"?>
<svg version="1.1" viewBox="0 0 1448 2048" width="2481" height="3508" xmlns="http://www.w3.org/2000/svg">
<path transform="translate(821,847)" d="m0 0 1 2h40l15 1 9 3 2 2-1 7-4 6-7 9-2 13-2 3v144l8 28 5 4 6 2 1 1 1 8-389 1-1-1 1-7 9-6 4-4 6-9 2-9v-156l-1-8-5-8-4-4-1-7 2-10 2-1 31-1 30 1 6 3v6l-3 4-3 7-4 4-4 8-1 48-2-2v-12l-2-1 1 4-1 21h-3l1 3 2-1v6l-2-1v12l2-1 2 7h1l1 6v16l-4 1-2-1v10l1 4 1-12 4 1v51l1 7 5 7 1 9 9 3 7 2h8l10-3 5-2 2-8 5-6 1-5v-161l-3-10-6-5-1-4 3-4 3-1-5-1-4-3 1-5 4-1 15-1h39l8 1 1 3-2 4 1 11-5 6-3 8-1 69 1 97 5 10 4 5 8 4 3 1h14l10-5 2-2 3-7 3-3 1-3v-41l1-11 2-1 1-16-2-6-1-15-1-77-3-4-2-4-4-3-2-9 1-9 6-2 15-2h26l20 3 4 6-1 6-9 11-4 13-1 46-2-2v-5l-2 10v7l1 10-1 12 1 18h2l1 62 2 5 5 9 1 5 17 5h11l7-3 6-4 6-8 2-9v-158l-2-10-6-8-7-8 1-6 8-7zm-275 13-1 2h6l-2-2zm93 0-5 1 1 2 5-1h8v-2zm89 0 1 4 7-1 1-2zm26 0 1 3h8l-1-2zm77 0v6l15 2h10l9-3 1-2h-2v-3zm-292 1m15 0m99 0m91 0m-205 4m4 0-1 2 4-1zm9-1-6 2 3 2 8-2-4-2zm103 1m83 0-3 2h3l1 5 2-2v-3l3 3h5l1 3 5-1v-3l-2-1 10-2v-1zm-95 4 1 2 5-1v-1zm194 1m-215 2 2 9 9-3 15-3 16 4 5 2 3-9zm116 0m-214 2-1 2 3 5 8-1-1-6zm43 0-1 5 4 2 3-6zm154 0v2l5 1v-3zm46 0-2 1-2 6 4 4h2l1-4-3-4 3 1 2-4zm103 1-1 5 2 7h2v-7l1-5zm-146 4v2l4-2zm-95 9v15l1 12h2v-27zm-85 1 1 5h2v-5zm12 0v12l2-1 1-11zm8 0 1 2zm80 0v7l2-1v-6zm17 0v11l1 4 3-1v-14zm67 0v7l4-2v-5zm26 0v7l3-3 3-2 4-2zm88 0v4l2-1v-3zm14 0 1 6h2v-6zm8 0 1 7h1l1-7zm-123 2 1 3 1-3zm-177 3 1 2zm-18 3-1 17 1 14h1v-31zm18 1-1 1v6h2v-7zm99 8-1 1v10l3 3v-13zm78 4m-1 1-1 4 2 3 1-1v-5zm-181 2v3h2l-1-3zm302 6m-198 1-1 1v95l1 14 2-4v-105zm77 1-1 2v20l3 3v-24zm-184 2 1 3zm202 0m-194 1v3zm-5 1m199 2v10l2-1v-7zm-199 1v7h2v-6zm4 1 1 3 1-3zm170 0 1 3zm128 0-1 6 2 3v-9zm-315 3 1 2zm187 1 1 2zm-174 5v23h1l1-15-1-8zm-13 7-1 5 2 1v-6zm187 1-1 6 2 2 1-6zm-177 2m174 0 1 2zm29 0m102 0m-14 1m0 2v8h1v-8zm-117 6-1 4h2zm3 1 1 2zm0 3m128 0m-121 2m-176 1-1 3v10l1 3h2v-9h2v-2h-2l-1-5zm169 0v6l2-4zm-188 1-1 3 2 4h1v-7zm188 6v6h2v-5zm128 1m-107 1m-17 2m3 0-1 1v6h2v-7zm121 0m-128 3 1 3v-3zm-188 1 2 2v-2zm22 0m-8 1 1 4zm194 0 2 2v-2zm-189 1m169 1 1 3zm-188 1 1 5 1-3zm19 0 1 2zm-5 2 1 4zm181 0-1 10v21l2 2 1-11v-11l-1-11zm14 0v6l2-1v-5zm9 1 1 2zm-30 3m128 0m-107 4-1 1v21h2v2h2v-17l-2-7zm8 0 1 4 1-3zm-30 3 1 4 2-1-1-3zm30 7v3h2l-1-3zm-217 1 1 3 1-3zm19 0-1 1v32l3 1 2-4h-2v-17l2-2v-4h-2v-7zm162 2m-159 2m165 2 1 2 1-2zm31 1m-31 2m30 1-1 6v10l3 2v-18zm103 3v3zm-110 1-2 3v8l1 3h3v-14zm-15 3-1 6-1 8-2 6 3 1v-3l2 1 1-8v-10zm125 1 1 3zm-298 6 1 3zm291 0 1 2zm-312 3-1 5 2-1zm13 0 1 2zm202 0v11l3 1v-10h-2zm97 0-1 1v8l2-1 1-6zm-291 1m298 1-1 12h3v-11zm-136 1 1 2zm-165 6 1 3 1-3zm-33 4-4 1-1 6h5l-1-3h4l-1-4zm206 0-4 2 6 3h10l8-3-4-2zm-173 2-1 3 5 1 1-4zm4 12-34 2-3 2 1 4 9 4h16l11-2 9-1-2-9zm51 2-1 4h2l1-4zm256-2-44 5 2 4 7 2h11l23-3 4-2-2-6zm-239 3v3l-2 1 2 1h15l1-4-2-1zm86 0 2 4 8 4 3 1h19l15-2h7l-1-5-1-1-10-1z" fill="#DC9E1C"/>
<path transform="translate(694,706)" d="m0 0h10l20 8 63 27 38 16 78 33 16 7 4 3v2l-7 1-26 1h-369l-37-1-9-1v-3l16-7 42-18 85-36 41-17 13-6zm0 26-17 7-35 15-52 22v3h217v-3l-26-11-42-18-30-13-6-2z" fill="#DB9B14"/>
<path transform="translate(505,1086)" d="m0 0h396l6 3 1 2v7l-4 1h-409l-5-2-1-2v-7z" fill="#DB9B14"/>
<path transform="translate(860,832)" d="m0 0h32l5 5 1 6-4 2-33 1h-130l-231-1-1-7 3-4 7-1h243z" fill="#DB9B15"/>
<path transform="translate(697,526)" d="m0 0 2 3 8 16 7 6 12 3 7 1-1 3-7 6-4 6-2 10 1 9v10h-5l3-1-5-6-10-5h-11l-12 6-5 4 2-5 3-10v-8l-4-8-7-6-5-4 16-2 9-6 5-10z" fill="#DB9B14"/>
<path transform="translate(734,849)" d="m0 0h26l20 3 4 6-1 6-9 11-1 3h-2l-1 3-3-2v-2l4-1 1-2-7 1 1 4-5 1-8-3h-10l-15 3h-7l-3-6-4-3-2-9 1-9 6-2zm-6 11 1 4 7-1 1-2zm26 0 1 3h8l-1-2zm-10 1m-6 4-3 2h3l1 5 2-2v-3l3 3h5l1 3 5-1v-3l-2-1 10-2v-1zm0 7m-17 2v2l5 1v-3z" fill="#DB9D1A"/>
<path transform="translate(543,850)" d="m0 0 36 1 6 3v6l-3 4-3 7-4 4-2 5h-2l1-4-5-1-1 4-6-1h-15l-12 1v-5l-9 1 2 6-3-1-4-7-4-4-1-7 2-10 2-1zm3 10-1 2h6l-2-2zm-7 1m15 0m-15 4m4 0-1 2 4-1zm9-1-6 2 3 2 8-2-4-2z" fill="#DC9E1C"/>
<path transform="translate(821,1201)" d="m0 0h4l1 9-3 9-6 8-13 12 17 2 12 6 7 7 2 3v5l-6 3h-12l-12-4-8-6-7-11-2-7v-10l3-9 4-6 7-6z" fill="#DB9B14"/>
<path transform="translate(574,1200)" d="m0 0 13 5 8 6 4 6 3 9v17l-5 10-5 4-10 5-17 4-7-2-2-3v-6l4-5 10-6 8-3 4-1h8l3-1-1-3-9-6-7-8-3-8v-8zm24 25 1 2z" fill="#DB9B15"/>
<path transform="translate(614,1212)" d="m0 0 10 2 10 5 7 7 4 9 1 11-3 12-6 9-9 6-10 3h-18l4-11 7-8 12-5 14-2-10-9-8-7-5-9-1-9z" fill="#DB9B14"/>
<path transform="translate(775,1212)" d="m0 0h7l2 5-1 9-6 10-18 14 17 2 12 6 8 9 3 5v3l-4 1h-12l-14-3-8-6-5-7-3-8v-16l4-10 8-9z" fill="#DB9B14"/>
<path transform="translate(631,850)" d="m0 0h39l8 1 1 3-2 4 1 11-5 6-1 3h-2l2-6-12 1h-21l-17-1 2 6h-2l-3-5-5-5 2-5 4-2-5-1-4-3 1-5 4-1zm8 10-5 1 1 2 5-1h8v-2zm14 1m2 4m-12 4 1 2 5-1v-1z" fill="#DC9E1D"/>
<path transform="translate(947,1115)" d="m0 0 5 2 3 6 2 7-1 9-5 17 9-5 8-3h12l10 4 3 3-2 4-10 6-9 3h-12l-10-4-8-7-5-9-1-9 3-12 4-10z" fill="#DB9B14"/>
<path transform="translate(857,1184)" d="m0 0h5l2 2v11l-4 8-5 5-10 9-1 3h14l11 4 8 9 3 5v2l-9 2h-9l-11-3-6-4-7-12-2-6v-10l4-11 7-8 7-5z" fill="#DB9B14"/>
<path transform="translate(534,1184)" d="m0 0 10 3 10 6 5 7 2 6 1 13-4 11-8 9-10 4-15 1-8-1 2-7 7-8 8-4 19-4h2v-2l-6-2-10-9-5-10-1-4v-8z" fill="#DB9B14"/>
<path transform="translate(970,1085)" d="m0 0 5 5 4 6 2 5v11l-3 10 12-3 13-4 11 1 5 3-2 5-8 8-10 5h-13l-9-4-8-6-5-7-2-5-1-9 4-13z" fill="#DB9B14"/>
<path transform="translate(800,559)" d="m0 0 2 1 5 10 7 4 3 1h16l-5 4-5 5h-2l-5 10v8l1 6-4-2-8-3h-7l-10 5-6 5 2-10 1-9-3-8-9-9 12-1 8-4 4-5z" fill="#DB9B14"/>
<path transform="translate(504,1165)" d="m0 0 10 6 7 8 3 6v13l-4 10-6 8-8 5-10 2-10-1-10-3-2-2 1-4 9-7 9-3h10l9 1 1-3-5-4-6-11-1-2v-13z" fill="#DB9B14"/>
<path transform="translate(477,1142)" d="m0 0 6 4 7 9 3 8-1 10-5 10-5 6-12 6-3 1h-10l-11-4-9-6 1-3 8-5 4-1h14l13 2-5-14v-14l4-8z" fill="#DB9B15"/>
<path transform="translate(891,1165)" d="m0 0 4 2 1 2v16l-4 8-6 7h-2l1 3h19l12 4 7 6 1 4-15 5h-15l-8-4-8-9-4-9-1-8 2-9 6-10 7-7z" fill="#DB9B14"/>
<path transform="translate(449,1114)" d="m0 0 5 4 6 12 1 11-3 11-7 8-8 6-5 2-7 1-9-2-8-4-9-7 2-4 11-4h12l8 3 4 3 5-1-2-5-4-9v-11l3-8z" fill="#DB9B14"/>
<path transform="translate(426,1086)" d="m0 0 5 5 4 9 1 4v8l-4 10-8 9-10 5-3 1h-12l-12-6-9-8v-2l10-5 8-1 8 2 9 5 4 3v-27l4-8z" fill="#DB9B14"/>
<path transform="translate(918,1142)" d="m0 0 4 4 4 8v11l-7 14-2 3 20-6h8l16 8v2l-14 8-6 2h-12l-12-6-7-8-4-9-1-10 4-10 6-8z" fill="#DB9B14"/>
<path transform="translate(406,1056)" d="m0 0 5 3 2 11v8l-3 10-7 8-11 6-9 1-14-5-9-6-3-5 2-5 4-3h8l11 4 10 7 3 1v-22l3-6 5-6z" fill="#DB9B14"/>
<path transform="translate(596,556)" d="m0 0 2 1 2 8 4 7 7 4h14l-4 4-5 4-4 10v9l1 7-7-6-9-2-8 2-9 4-2-1 4-8-1-8-6-7-11-7v-1h9l9-1 8-4 4-6zm-11 42-2 2v3l7-1 5-3v-1zm12 0 2 2 1-2z" fill="#DB9B14"/>
<path transform="translate(990,1055)" d="m0 0 8 6 5 10v13l-2 9 8-6 11-6 4-1h10l7 3-1 5-6 7-9 5-7 2-11-1-10-4-8-7-4-8-1-9 2-10z" fill="#DB9B14"/>
<path transform="translate(1015,992)" d="m0 0 9 3 7 8 6 18 5-5 8-7 6-3 10-1 3 2v6l-7 8-8 7-8 3h-8l-10-3-8-6-5-10-1-4v-15z" fill="#DB9B14"/>
<path transform="translate(1025,959)" d="m0 0 9 1 5 4 6 12 4 9 2 1 1-5 6-8 6-4 7-2h9l-1 7-5 9-9 9-12 3-9-1-9-5-6-5-4-10-1-5v-7z" fill="#DB9B14"/>
<path transform="translate(697,1215)" d="m0 0 6 1 3 4v63l-2 4-7 1-4-2-1-2-1-18v-45l2-4z" fill="#DB9C17"/>
<path transform="translate(1006,1026)" d="m0 0 6 1 8 11 1 4v16l8-7 8-5 6-2h9l6 2-4 7-9 9-9 4-8 1-13-4-8-7-4-9v-19z" fill="#DB9B14"/>
<path transform="translate(368,959)" d="m0 0 5 1v8l-2 10-5 8-8 5-14 3-10-2-7-5-7-11-3-8 1-1h10l8 4 7 6 5 6 2 1v2h2v-7l3-9 7-8z" fill="#DB9B14"/>
<path transform="translate(379,993)" d="m0 0h3l1 4v10l-2 8-3 5-8 7-10 3h-13l-8-5-7-9-4-7v-3h13l10 5 9 10 2 3 3-17 5-8z" fill="#DB9B14"/>
<path transform="translate(392,1024)" d="m0 0 2 4 1 14-2 10-6 7-11 5-7 2h-8l-10-5-10-13v-2l4-2h11l10 5 11 8v-13l3-9 6-7z" fill="#DB9B14"/>
<path transform="translate(732,1212)" d="m0 0h8l4 3 1 3v58l-3 7-2 1h-8l-1-1v-70z" fill="#DB9B15"/>
<path transform="translate(714,1214)" d="m0 0h8l3 3-1 68-1 2-9-1-3-4v-64z" fill="#DB9C16"/>
<path transform="translate(676,1214)" d="m0 0 6 1 3 4 1 9-1 54-2 4-4 1-7-3v-68z" fill="#DB9B14"/>
<path transform="translate(1030,927)" d="m0 0 10 2 6 4 10 15 1 2 3-9 5-7 8-5 8-2 3 2-2 10-6 10-5 4-5 3h-15l-9-3-6-5-4-9z" fill="#DB9B14"/>
<path transform="translate(366,925)" d="m0 0 2 1-3 16-6 8-7 4-5 2h-12l-9-3-7-8-4-11-1-6h8l8 4 7 8 3 7 5 1 2-10 6-7 10-5z" fill="#DB9B14"/>
<path transform="translate(760,890)" d="m0 0h4l1 54 1 10-1 11-1 29v3 7l-2 2h2v8h-2v24l-2 3v-99l-1-10 1-3 1-36h-3l-1 107-2-2-1-4h-1v-13-1-58l1-26 3-5zm-6 83m0 12v6l2-1v-5z" fill="#FCFAF3"/>
<path transform="translate(660,1211)" d="m0 0 7 2-2 1 1 30-1 39-1 1h-7l-3-2-1-3v-63l3-4z" fill="#DB9B16"/>
<path transform="translate(1076,889)" d="m0 0h4l1 7-3 10-7 8-7 4h-15l-8-4-6-7-4-9v-5l1-1 10 1 9 8 6 11 5-12 6-7z" fill="#DB9B14"/>
<path transform="translate(1071,850)" d="m0 0 5 1 1 1-1 13-5 9-14 7-7 1-9-3-10-10-6-8v-2l11-1 6 4 9 10 4-1 2-9 4-6 7-5z" fill="#DB9B14"/>
<path transform="translate(316,888)" d="m0 0 10 3 7 5 5 9 1 6 5-5 7-10 8-4h6v7l-3 9-5 5-5 3-4 1h-14l-9-4-5-6-3-8z" fill="#DB9B14"/>
<path transform="translate(319,851)" d="m0 0h7l7 4 6 10 5 7 2 1 1-5 5-6 10-5 9-1-4 11-7 9-7 4-4 1h-10l-8-3-7-8-4-12z" fill="#DB9B14"/>
<path transform="translate(1064,816)" d="m0 0h3l1 7-2 11-6 8-6 5h-18l-11-9-4-9 1-4 10 1 7 4 7 8v2h2l3-12 5-8z" fill="#DB9B14"/>
<path transform="translate(332,816)" d="m0 0 7 2 6 7 6 14 2 1 1-4 3-5 10-5 10-1v3l-6 11-7 6-4 1h-10l-9-2-7-5-3-9v-11z" fill="#DB9B14"/>
<path transform="translate(1049,779)" d="m0 0 5 1 2 3-1 15-4 6-3 3-13 4h-8l-6-3-7-9-2-5 2-1h9l10 5 3 3 3 1 1-10 6-11z" fill="#DB9B14"/>
<path transform="translate(343,779)" d="m0 0 5 1 6 5 3 6v12l5-2 3-1 1-3 9-4h8l3 4-10 9-8 5-10 1-10-6-5-7-1-4v-11z" fill="#DB9B14"/>
<path transform="translate(362,748)" d="m0 0 8 4 3 6 2 11h2l8-5h12l2 2-5 7-9 5h-11l-8-4-5-6-1-3v-12z" fill="#DB9B14"/>
<path transform="translate(1034,747)" d="m0 0 2 2 1 4v11l-3 6-8 7-4 2h-7l-8-4-8-8v-2l8-2 8 2 10 6-1-2v-7l3-8z" fill="#DB9B14"/>
<path transform="translate(831,889)" d="m0 0 3 1v151h-4v-36z" fill="#FEFFFE"/>
<path transform="translate(743,889)" d="m0 0h6l-1 5-2 5v144h-3l-1-114v-36z" fill="#FEFFFE"/>
<path transform="translate(530,889)" d="m0 0h3v154l-4-1z" fill="#FEFFFE"/>
<path transform="translate(742,911)" d="m0 0h1v18h-1l-1-7-1 1v20l1 2v-9l2-3 1 111h-7l2-6 2-4v-12l-1 5-1 8h-1v-120h2l1 2zm-2 52m0 12-1 1v6h2v-7zm0 10-1 10v21l2 2 1-11v-11l-1-11z" fill="#DB9B14"/>
<path transform="translate(636,889)" d="m0 0h3v152h-3z" fill="#FEFFFE"/>
<path transform="translate(735,889)" d="m0 0h3v147l-2 5h-1l-1-68z" fill="#FDFEFC"/>
<path transform="translate(844,889)" d="m0 0h1v152h-3v-148z" fill="#FEFFFE"/>
<path transform="translate(555,890)" d="m0 0 2 1v9h1l1 16-1 125h-3zm1 33 1 3z" fill="#FEFFFE"/>
<path transform="translate(379,721)" d="m0 0 5 2 5 5-1 9-1 2 12-3h8l3 2-1 5-9 6-8 1-6-3-6-5-2-4v-12z" fill="#DB9B14"/>
<path transform="translate(1014,721)" d="m0 0 4 2 3 8-1 6-4 6-6 5-5 2-7-1-9-6-1-5 4-2h8l8 5 1-12 3-6z" fill="#DB9B15"/>
<path transform="translate(856,890)" d="m0 0h1v5h2v136l-1 1-1 8h-1z" fill="#FEFFFE"/>
<path transform="translate(562,889)" d="m0 0h2l1 7-2 9h2v19 3l1 1v13h-3l1 3 2-1v6l-2-1v12l2-1 2 7h1l1 6v16l-4 1-2-1v10l2 6-2 1v13l-1 19 3 1v2h-2l-1 2-1-1zm1 40 1 3 1-3zm1 35-1 3v10l1 3h2v-9h2v-2h-2l-1-5zm3 15m-3 2m0 2 1 2z" fill="#FEFFFE"/>
<path transform="translate(430,664)" d="m0 0 4 4 1 2v7l-1 5h9l7 2 3 4-5 4-2 1h-10l-7-3-5-6-1-2v-7l4-8z" fill="#DB9B14"/>
<path transform="translate(629,903)" d="m0 0h1v12h2v127l-3 2z" fill="#FEFFFE"/>
<path transform="translate(993,692)" d="m0 0 3 4 3 8-1 5-3 5-7 6-3 1h-7l-8-4-3-3 2-4 2-1h8l9 2-1-9 3-7z" fill="#DB9B14"/>
<path transform="translate(729,895)" d="m0 0h2v62l-2 4h2v44l-1 36h-2l-1-61 1-84z" fill="#FDFEFC"/>
<path transform="translate(403,694)" d="m0 0 5 1 3 7-2 9 11-2h6l5 4-7 6-5 2-8-1-9-5-2-4-1-8 2-7z" fill="#DB9B14"/>
<path transform="translate(966,665)" d="m0 0 5 1 3 7-1 10-4 6-5 4h-10l-10-4 2-4 3-2h13l3-1-3-8 1-7z" fill="#DB9B14"/>
<path transform="translate(537,889)" d="m0 0h3v106l-1 46h-1l-1-44z" fill="#FEFFFE"/>
<path transform="translate(756,895)" d="m0 0h1v105l-2-2-1-4h-1v-13-1-58l1-25zm-2 78m0 12v6l2-1v-5z" fill="#FEFFFE"/>
<path transform="translate(864,890)" d="m0 0h1l1 6 1 75v63h-1l-1 6h-1v-21-1zm1 132 1 3z" fill="#FEFFFE"/>
<path transform="translate(807,809)" d="m0 0h11l4 3 1 9-3 6-2 1h-11l-4-4-1-7 3-7z" fill="#DB9B14"/>
<path transform="translate(579,809)" d="m0 0h12l4 4v10l-5 5h-9l-5-3-1-2v-10z" fill="#DB9B14"/>
<path transform="translate(884,809)" d="m0 0h9l5 5v7l-2 7h-14l-3-3-1-2v-10l3-3z" fill="#DB9B14"/>
<path transform="translate(503,809)" d="m0 0h12l4 4v10l-5 5h-14l-1-13 3-5z" fill="#DB9B14"/>
<path transform="translate(693,809)" d="m0 0h12l4 5v8l-3 5-3 1h-9l-5-5v-9l2-4z" fill="#DB9B14"/>
<path transform="translate(655,809)" d="m0 0h12l3 4v11l-4 4h-11l-4-4-1-8 2-5z" fill="#DB9B14"/>
<path transform="translate(541,809)" d="m0 0h12l4 5-1 10-4 4h-10l-4-2-2-8 2-7z" fill="#DB9B16"/>
<path transform="translate(769,809)" d="m0 0h11l4 3v11l-5 5h-9l-4-2-2-6 1-8z" fill="#DB9B14"/>
<path transform="translate(846,809)" d="m0 0h10l4 4v11l-2 3-9 1-6-1-2-3-1-9 3-5z" fill="#DB9B16"/>
<path transform="translate(617,809)" d="m0 0h11l5 5-1 10-3 3-2 1h-8l-5-3-1-2v-10z" fill="#DB9B14"/>
<path transform="translate(731,809)" d="m0 0h11l4 3v12l-3 3-2 1h-9l-5-5v-10z" fill="#DB9B14"/>
<path transform="translate(938,642)" d="m0 0 4 2 6 9-1 6-5 5-5 4-2 1h-9l-7-4 1-3 4-2h9l3 1v-15z" fill="#DB9B14"/>
<path transform="translate(456,641)" d="m0 0 5 5-1 13-1 2 6-1h8l5 2-2 4-8 4-6-1-6-4-5-6v-9z" fill="#DB9B14"/>
<path transform="translate(849,889)" d="m0 0h2l1 152h-3z" fill="#FEFFFE"/>
<path transform="translate(544,968)" d="m0 0 3 4v7 2l-1 6 1 1v16h-2l2 3v24l-1 4h1v6h-3z" fill="#FEFFFE"/>
<path transform="translate(729,895)" d="m0 0h2v62l-3 4v-65z" fill="#FEFFFE"/>
<path transform="translate(486,636)" d="m0 0h4l-2 7-5 6-8 4-4-2 1-7 5-4z" fill="#DB9B14"/>
<path transform="translate(544,891)" d="m0 0 1 3h2l-1 20 1 20v11l-1 5 1 1v14h-2l-1 2z" fill="#FEFFFE"/>
<path transform="translate(908,636)" d="m0 0 11 3 6 5 1 7-1 1-8-1-5-4-4-7z" fill="#DB9B15"/>
<path transform="translate(734,951)" d="m0 0h1v15 2l-1 4-1 5h2v3 17l-3-1-1 2v-46zm-1 7 1 2zm0 3m0 21 1 3z" fill="#DB9B14"/>
<path transform="translate(758,893)" d="m0 0h3v36h-2l-1 7h-1v-41z" fill="#DB9B14"/>
<path transform="translate(562,889)" d="m0 0h2l1 7-2 9h2v19 3l1 1v13h-4zm1 40 1 3 1-3z" fill="#FEFFFE"/>
<path transform="translate(661,973)" d="m0 0h1l1 35 1 18h1v18l-4-3z" fill="#FEFFFE"/>
<path transform="translate(533,874)" d="m0 0h34l-1 5-6-1h-15l-12 1z" fill="#FEFFFE"/>
<path transform="translate(726,874)" d="m0 0h41l-2 1 1 4-5 1-8-3h-10l-15 3h-5l-2-4h5z" fill="#FEFFFE"/>
<path transform="translate(561,915)" d="m0 0h1v37l-2-2v-9l-1 19h-1v-26l3 1-1-6-2 1v-14z" fill="#DB9B14"/>
<path transform="translate(566,990)" d="m0 0 4 1v20l-2 3v-3h-2z" fill="#DB9B14"/>
<path transform="translate(566,964)" d="m0 0 3 2 1 6v16l-4 1v-18h2v-2h-2z" fill="#DB9B14"/>
<path transform="translate(540,860)" d="m0 0h6 3l6 1h11v2h-35l4-2h5z" fill="#FEFFFE"/>
<path transform="translate(621,1060)" d="m0 0 15 1v3l-2 1h-10l-4-1z" fill="#FEFFFE"/>
<path transform="translate(648,860)" d="m0 0 8 1h9v2h-30v-1l5-1h7z" fill="#FEFFFE"/>
<path transform="translate(563,1046)" d="m0 0 2 4-3 2h-9l-8-1v-2l16-1z" fill="#FEFFFE"/>
<path transform="translate(534,1047)" d="m0 0 9 2v3l-2 1-11-1v-4z" fill="#FEFFFE"/>
<path transform="translate(566,1013)" d="m0 0 4 2-1 15-3 1-1-14z" fill="#DC9E1D"/>
<path transform="translate(743,860)" d="m0 0h11l1 3h-19l1-2z" fill="#FEFFFE"/>
<path transform="translate(850,875)" d="m0 0h20l-1 4-4-1-13-1z" fill="#FEFFFE"/>
<path transform="translate(562,931)" d="m0 0h4v10h-4z" fill="#FDFCF8"/>
<path transform="translate(753,1029)" d="m0 0 1 3h3v8l-4 1z" fill="#FEFFFE"/>
<path transform="translate(826,874)" d="m0 0 17 1-2 2h-16l-1-2z" fill="#FEFFFE"/>
<path transform="translate(568,953)" d="m0 0 2 1v4l-5-1 1-3 2 1z" fill="#E3B44E"/>
<path transform="translate(767,1245)" d="m0 0 4 4h-4l-1-3z" fill="#FEFFFE"/>
<path transform="translate(842,862)" d="m0 0h5v2l-5-1z" fill="#FEFFFE"/>
<path transform="translate(1064,994)" d="m0 0 4 4h-3z" fill="#FEFFFE"/>
<path transform="translate(728,1230)" d="m0 0 1 4-2-3z" fill="#FEFFFE"/>
<path transform="translate(667,1214)" d="m0 0 4 2-4-1z" fill="#FEFFFE"/>
<path transform="translate(724,989)" d="m0 0h2l-1 3z" fill="#DB9B14"/>
<path transform="translate(569,933)" d="m0 0h1v5h-1z" fill="#F0D7A0"/>
<path transform="translate(855,862)" d="m0 0 2 1v2h-2z" fill="#FEFFFE"/>
<path transform="translate(838,862)" d="m0 0 3 1-3 1z" fill="#FEFFFE"/>
<path transform="translate(1021,986)" d="m0 0h2v2h-2z" fill="#FEFFFE"/>
<path transform="translate(727,1222)" d="m0 0 2 2h-2z" fill="#FEFFFE"/>
<path transform="translate(1026,1068)" d="m0 0 3 1z" fill="#FEFFFE"/>
<path transform="translate(728,1262)" d="m0 0" fill="#FEFFFE"/>
<path transform="translate(728,1259)" d="m0 0" fill="#FEFFFE"/>
<path transform="translate(728,1255)" d="m0 0" fill="#FEFFFE"/>
<path transform="translate(586,1236)" d="m0 0" fill="#FEFFFE"/>
<path transform="translate(727,1214)" d="m0 0 2 1z" fill="#FEFFFE"/>
<path transform="translate(725,993)" d="m0 0" fill="#DB9B14"/>
<path transform="translate(1018,988)" d="m0 0 2 1z" fill="#FEFFFE"/>
<path transform="translate(768,966)" d="m0 0" fill="#FEFFFE"/>
<path transform="translate(569,947)" d="m0 0" fill="#ECCD89"/>
<path transform="translate(748,867)" d="m0 0" fill="#DB9B14"/>
<path transform="translate(1006,734)" d="m0 0" fill="#FEFFFE"/>
<path transform="translate(931,656)" d="m0 0" fill="#FEFFFE"/>
<path transform="translate(727,1254)" d="m0 0" fill="#FEFFFE"/>
<path transform="translate(728,1253)" d="m0 0" fill="#FEFFFE"/>
<path transform="translate(688,1223)" d="m0 0" fill="#FEFFFE"/>
<path transform="translate(876,1082)" d="m0 0" fill="#FEFFFE"/>
<path transform="translate(563,1064)" d="m0 0" fill="#FEFFFE"/>
<path transform="translate(738,1037)" d="m0 0" fill="#DB9B14"/>
<path transform="translate(666,875)" d="m0 0" fill="#FEFFFE"/>
<path transform="translate(622,830)" d="m0 0" fill="#FEFFFE"/>
<path transform="translate(817,608)" d="m0 0" fill="#DB9B14"/>
</svg>
