<svg width="377" height="403" viewBox="0 0 377 403" fill="none" xmlns="http://www.w3.org/2000/svg">
<path d="M234.293 353.182C181.446 382.089 128.79 382.096 75.9116 353.182C73.9527 357.098 71.888 361.177 69.8546 365.245C64.9547 375.036 60.0575 384.824 55.1628 394.61C52.5026 399.915 48.2518 402.832 42.234 402.871C36.5571 402.894 32.3533 400.232 29.697 395.279C27.4638 391.09 27.4991 386.74 29.6108 382.5C35.8793 369.901 42.1805 357.316 48.5143 344.745C49.9403 341.891 51.339 339.025 52.7416 336.182C16.9092 303.157 -1.60244 262.521 0.0743887 213.635C1.44171 173.88 16.6311 139.582 44.4084 111.056C100.218 53.8464 194.473 46.6345 259.308 105.015C262.121 102.458 264.962 99.8936 267.783 97.3095C276.833 89.0222 285.865 80.7167 294.878 72.3929C295.616 71.6444 296.053 70.6507 296.105 69.6013C296.195 59.0928 296.136 48.5882 296.206 38.0797C296.229 37.0803 296.604 36.121 297.264 35.3703C308.388 24.1467 319.549 12.9686 330.746 1.83629C332.752 -0.168316 334.523 -0.512857 336.509 0.704783C338.076 1.65619 338.535 3.10091 338.531 4.8706C338.476 18.8976 338.463 32.9312 338.491 46.9712V50.4949H348.979C360.604 50.4949 372.228 50.4949 383.848 50.448C386.007 50.448 387.711 50.9687 388.62 53.0712C389.529 55.1737 388.655 56.822 387.159 58.3137C375.927 69.5113 364.696 80.7037 353.465 91.8908C352.878 92.4703 351.749 92.7482 350.872 92.7522C339.577 92.7952 328.282 92.807 316.983 92.7169C316.186 92.6884 315.393 92.8242 314.651 93.1159C313.91 93.4076 313.236 93.8489 312.673 94.4122C287.244 117.778 261.796 141.117 236.33 164.429C219.001 180.304 201.664 196.162 184.321 212.003C183.013 213.177 182.754 214.305 183.009 215.894C185.465 230.193 174.836 244.989 160.403 247.408C144.869 250.016 130.992 240.752 127.494 225.459C123.932 209.947 135.133 193.899 150.906 191.765C154.671 191.256 158.303 191.643 161.97 192.368C162.754 192.528 163.961 192.317 164.536 191.796C175.034 182.29 185.49 172.741 195.906 163.148C196.016 163.003 196.11 162.845 196.185 162.678C191.386 159.117 186.131 156.213 180.56 154.045C139.611 138.048 93.9413 163.368 85.804 206.557C78.6423 244.558 103.54 281.291 141.59 288.867C177.156 295.945 212.726 274.235 222.657 239.382C224.939 231.2 225.759 222.681 225.078 214.215C225.043 213.535 225.276 212.868 225.729 212.359C233.533 205.135 241.4 197.967 249.236 190.762C259.504 219.301 255.112 267.435 214.5 298.459C174.629 328.9 117.699 323.971 83.1909 287.281C48.6827 250.591 47.3899 193.859 79.6962 155.862C112.606 117.144 173.124 107.399 217.466 143.333C220.894 140.201 224.35 137.045 227.797 133.886C231.245 130.726 234.708 127.535 238.43 124.098C235.089 121.51 231.935 118.902 228.636 116.526C212.299 104.827 194.226 97.3408 174.331 94.2713C111.003 84.5576 52.1461 123.518 33.9753 181.824C29.3326 196.725 27.3659 211.944 28.4903 227.534C31.0917 264.197 46.6964 294.297 74.8263 317.777C92.4565 332.506 112.888 341.492 135.658 344.976C161.747 348.97 186.852 345.524 210.489 333.825C242.568 317.949 264.214 292.684 275.806 258.86C280.962 243.822 282.858 228.29 281.985 212.449C281.241 198.634 278.134 185.048 272.797 172.283C272.092 170.595 272.241 169.612 273.655 168.367C280.316 162.42 286.866 156.336 293.683 150.087C309.335 181.824 314.205 214.876 307.419 249.397C300.634 283.918 283.599 312.64 257.393 336.096C261.177 343.672 264.931 351.186 268.688 358.695C272.656 366.62 276.653 374.532 280.59 382.472C281.43 384.136 281.932 385.95 282.067 387.809C282.202 389.668 281.967 391.536 281.377 393.303C280.786 395.071 279.851 396.705 278.625 398.11C277.399 399.515 275.907 400.663 274.235 401.489C272.598 402.319 270.814 402.818 268.984 402.958C267.154 403.098 265.314 402.877 263.569 402.306C261.825 401.735 260.21 400.826 258.818 399.631C257.425 398.436 256.282 396.979 255.453 395.342C248.817 382.343 242.356 369.251 235.825 356.189C235.304 355.164 234.775 354.13 234.293 353.182Z" fill="white" fill-opacity="0.27"/>
</svg>
