<?xml version="1.0" encoding="utf-8"?>
<!-- Generator: Adobe Illustrator 26.3.1, SVG Export Plug-In . SVG Version: 6.00 Build 0)  -->
<svg version="1.1" id="Layer_1" xmlns="http://www.w3.org/2000/svg" xmlns:xlink="http://www.w3.org/1999/xlink" x="0px" y="0px"
	 viewBox="0 0 1190.55 750.89" style="enable-background:new 0 0 1190.55 841.89;" xml:space="preserve">
<style type="text/css">
	.st0{fill:none;}
	.st1{fill:#940019;}
</style>
<rect x="-0.17" y="0.04" class="st0" width="1189.58" height="840.62"/>
<path class="st1" d="M421.74,524.5c-1.46-0.37-5.61,4.14-5.66,6.41c-0.16,11.74,1.92,22.97,12.76,28.51
	c5.89,0.27,11.85,0.31,17.68,0.84c6.75,0.6,12.54,0.06,15.93-7.01c2.15-4.42,5.54-5.79,10.11-2.89c5.28,3.36,11.14,5.91,15.83,9.9
	c2.68,2.31,5.67,7.72,4.66,10.03c-1.43,3.32-6.6,7.29-9.89,7.03c-9.77-0.75-15.58,3.37-21.04,10.79c-4.07,5.6-10.21,6.84-16.8,2.89
	c-19.56-11.52-38.51-23.95-54.63-40.2c-11.92-11.99-9.8-31.02,4.19-39.55c15.58-9.47,15.58-9.47,2.46-21.78
	c-0.78-0.74-1.75-1.3-2.64-1.99c-3.11,1.34-6.04,2.86-9.12,3.79c-2.81,0.9-5.82,1.21-9.55,1.89c-0.21,2.49-0.37,5.13-0.72,7.81
	c-1.53,10.65-6.6,18.17-17.64,21.29c-9.49,2.65-14.93-3.36-20.19-8.9c-3.95-4.2-7.09-7.96-13.54-5.67
	c-1.93,0.68-4.72,0.68-6.48-0.22c-18.92-9.81-40.78-9.42-60.12-17.4c-19.55-8.1-32.11-24.21-43.91-40.85
	c-1.43-2.05-2.4-4.75-4.3-5.94c-2.25-1.44-5.72-2.86-8-2.15c-30.59,9.39-60.58,11.3-89.38-5.88c-3.39-2.03-7.25-3.27-10.86-4.86
	c0.07-0.69,0.16-1.39,0.25-2.08c10.34-1.11,20.67-2.52,31.08-3.4c19.88-1.64,36.94-11.39,54.52-19.3c3.01-1.33,5.03-7.69,5.08-11.79
	c0.22-9.3-1.03-18.64-1.69-27.95c-1.18-17.96,5.84-32.2,18.44-44.81c7.18-7.16,12.19-16.52,18.44-24.73
	c6.07-7.93,12.36-15.74,18.74-23.46c7.71-9.3,15.78-18.21,23.39-27.56c11.86-14.54,25.88-26.04,44.37-30.71
	c7.49-1.9,11.94-6.4,16.18-12.51c10.88-15.69,23.59-29.87,41.67-37.45c14.84-6.19,30.17-11.24,45.21-16.98
	c7.37-2.83,14.68-5.88,21.91-9.08c22.56-10.01,44.59-21.23,67.67-29.72c13.06-4.8,27.7-5.7,41.72-7.56
	c10.04-1.34,20.2-1.41,30.31-2.05c16.9-1.05,32.85,2.11,48.94,7.9c19.14,6.94,39.26,11.13,58.86,16.81
	c36.77,10.68,65.12,33.04,88.08,63.13c9.49,12.39,20.17,23.89,30.09,36c14.74,18.08,34.19,30.39,54.49,40.23
	c40.22,19.44,65.34,51.47,82.7,91.11c2.76,6.26,5.28,12.94,9.49,18.14c3.74,4.67,9.22,8.59,14.74,10.99
	c27.63,12.05,55.63,23.17,83.24,35.21c17.82,7.74,32.52,19.73,40.72,37.75c6.75,14.83,1.78,24.42-10.62,37.42
	c-11.36,11.91-26.69,17.08-41.38,22.96c-21.04,8.44-42.48,15.91-63.66,24c-8.12,3.17-16.11,6.75-23.86,10.67
	c-6.47,3.36-6.9,7.46-1.16,12.14c7.5,6.14,14.18,13.23,24.67,15.27c8.5,1.62,11.73,9.2,12.82,17.26c1.39,10.33,2.45,20.7,3.7,31.09
	c1.86,15.5,7.71,29.69,14.96,43.28c5.28,9.9,4.2,18.73-4.52,25.67c-6.34,5.01-7,10.8-6.12,18.17c3.11,25.92-1.64,19.13-21.63,20.62
	c-4.11,0.28-8.27,0.04-12.39-0.25c-9.61-0.75-12.67-5.41-7.75-13.47c3.79-6.13,8.69-11.85,14.12-16.58
	c4.91-4.24,7.57-8.53,8.56-15.03c1.15-7.41,4.52-14.52,6.72-21.74c1.09-3.54,3.07-7.47,2.36-10.8
	c-6.03-29.46-22.37-50.77-50.71-62.13c-4.2-1.62-8.65-2.86-13.07-3.66c-6.29-1.13-9.06,1.89-8.97,8.31
	c0.25,25.57-0.46,51.25,12.64,74.64c0.22,0.37-0.03,0.99-0.22,3.05c-6.41-3.9-12.23-7.43-18.07-11.01
	c-0.63,0.28-1.25,0.55-1.89,0.77c2.71,7.37,5.42,14.69,8.13,22.09c-12.41-3.08-18.64-14.38-27.69-23.75
	c-0.4,3.2-0.66,5.62-1.06,8.69c-10.99-11.61-21.47-22.78-26.04-37.99c-6.97-23.14-0.87-38.87,22.63-56.74
	c-6.5-2.49-12.7-3.86-17.77-6.98c-11.55-7.09-22.84-14.72-33.78-22.72c-9.11-6.66-14.93-6.6-20.38,2.55
	c-1.47,2.46-1.19,6.7-0.34,9.76c5.04,18.26,11.33,36.24,15.47,54.66c2.86,12.72,2.74,26.44-10.86,34.25
	c-6.48,3.67-14.09,6.29-21.47,7.5c-17.68,2.81-33.47,10.17-48.6,19.02c-15.53,9.12-31.73,17.48-43.97,31.33
	c-1.78,2.06-4.19,3.82-5.31,6.22c-3.74,7.78-8.31,12.36-17.86,8.44c-4.29-1.75-7.37,1.05-7.5,5.97c-0.07,3.8,0,7.62,0,12.58
	c-10.89,0-20.95,0.56-30.96-0.16c-5.44-0.4-7.13-9.31-2.46-14.19c3.29-3.46,8.08-5.58,11.91-8.61c4.1-3.29,8.65-6.41,11.67-10.6
	c4.36-6.17,8.9-10.93,17.15-10.67c2.28,0.04,5.04-0.68,6.81-2.05c21.23-16.4,42.53-32.67,63.37-49.57
	c7.81-6.32,12.39-15.3,13.17-25.64c0.84-11.16-6.93-17.34-14.16-23.68c-10.74-9.37-22.93-17.46-31.99-28.21
	c-11.73-13.84-21.03-29.75-32.26-46.07c-33.1,5.7-67.93,12.72-103.73,6.17c-5.56,13.53-1.19,24.33,5.1,35.51
	c3.63,6.5,6.41,14.35,6.51,21.65c0.04,10.93,3.88,20.19,7.9,29.89c6.84,16.42,13.54,32.94,19.05,49.9
	c3.32,10.09,1.08,12.83-8.89,16.61c-4.54,1.74-6.45,4.45-7.82,9.31c-1.86,6.51-5.98,12.38-8.96,18.6c-2.58,5.39-5.2,10.85-7.4,16.4
	c-3.83,9.9-7.19,11.72-17.62,9.4c-3.73-0.85-7.74-0.3-11.33-1.39c-3.17-0.94-6.7-2.64-8.58-5.17c-0.91-1.19,1.18-5.36,2.74-7.54
	c6.44-9.12,12.76-18.29,19.85-26.83c4.66-5.57,10.43-10.18,15.89-15.08c9.36-8.49,10.21-9.89,4.41-20.93
	c-7.72-14.74-16.08-29.13-24.89-43.25c-2.45-3.95-7.09-6.72-11.2-9.3c-12.42-7.81-21.78-18.69-21.34-33.19
	c0.71-25.73-15.55-36.58-35.09-46.07c-5.6-2.71-10.51-6.82-16.12-9.39 M907.07,469.04c1.33,24.39,7.96,44.56,17.14,64.1
	c3.33,6.98,8.12,9.06,15.09,5.58c3.64-1.86,7.24-3.77,10.8-5.79c20.87-11.82,41.82-23.61,62.6-35.62
	c12.98-7.5,25.99-14.99,38.64-23.09c8.58-5.54,9.98-12.95,2.56-19.85c-6.34-5.97-14.29-11.58-22.55-13.95
	c-25.08-7.25-50.6-13.01-76.02-18.97c-7.94-1.86-15.65-1.74-21.16,6.44c-7.31,10.83-15.44,21.04-22.84,31.8
	C908.97,463.07,907.82,467.31,907.07,469.04 M718.57,337.05v15c-3.93,0.53-7.32,1.03-11.11,1.56c0.69,4.64,1.25,8.49,1.92,13
	c-3.88-0.34-6.78-0.55-10.67-0.9c0.44,5.22,0.83,10.01,1.15,13.56c-2.17,0.91-4.57,1.19-5.59,2.56c-3.85,5.1-8.02,6.9-13.72,2.92
	c-6.23-4.35-12.54-8.52-19.08-12.97c12.47,17.02,24.55,33.5,36.3,49.53c10.24-10.95,19.89-23.46,31.77-33.29
	c10.79-8.93,23.18-17.23,36.27-21.75c33.32-11.46,68.13-16.52,103.46-17.15c1.93-0.03,3.82-0.53,5.75-0.82
	c0.15-0.66,0.25-1.31,0.38-1.96c-53.11-16.92-105.05-36.12-145.86-76.48c-0.9,0.66-1.75,1.33-2.62,1.97
	c6.28,12.76,12.5,25.52,19.02,38.82c-9,2.3-9.95,8.81-8.99,16.47c-2.68-1.24-4.79-2.18-8.36-3.85c0.28,5.92,0.47,10.55,0.71,15.68
	C725.91,338.36,722.83,337.81,718.57,337.05 M648.18,448.32c-6.34-5.97-12.78-11.82-19.02-17.89
	c-14.93-14.41-26.88-30.78-36.03-49.57c-5.57-11.46-3.43-21.23,2.37-31.11c2.62-4.45,5.75-8.74,9.2-12.6
	c11.64-13.35,23.83-26.33,35.28-39.86c14.59-17.26,7.68-54.91-12.39-66.45c0.49,2,0.49,3.7,1.27,5c2.34,3.96,6.23,7.46,7.32,11.69
	c1.81,7.18,3.12,14.87,2.49,22.15c-0.49,5.22-3.88,13.81-7.09,14.37c-6.87,1.19-9.64,3.4-9.03,9.78c-2.96,0.66-7.04,0.66-7.4,1.78
	c-2.73,9.25-9.76,8.83-17.12,8.93c-2.31,0-4.57,2.67-7.01,3.86c-2.15,1.09-4.57,2.76-6.78,2.62c-9.89-0.69-19.69-1.96-29.53-2.98
	c-0.35,0.63-0.68,1.27-1.03,1.92c17.01,17.05,23.36,35.87,11.44,58.3c-2.98,5.61-0.38,10.67,4.97,14.03
	c12.08,7.56,16.89,18.7,17.21,32.6c0.1,4.07,1.87,9.02,4.58,11.91C606.98,442.79,626.83,447.68,648.18,448.32 M526.02,501.6
	c-10.01,8.4-17.74,4.07-24.87-1.96c-6.45-5.48-12.45-11.54-18.69-17.23c-21.57-19.69-35.71-44.39-47.67-70.51
	c-10.86-23.53-17.51-47.92-13.48-74.27c0.6-4.05,0.09-8.3,0.09-14.28c-15.44,20.9-21.4,42.31-16.93,65.87
	c7,37.24,27.07,67.89,51.03,96.3c11.21,13.38,19.72,30.44,40.75,31.12c1.18,0.04,2.4,1.28,3.45,2.18
	c8.38,6.96,16.83,13.85,25.05,21.04c3.52,3.14,6.53,6.81,9.76,10.3c0.9-0.34,1.77-0.74,2.62-1.09
	C526.18,535.31,525.65,519.21,526.02,501.6 M567.54,522.01c39.58,6.41,76.44,3.4,111.98-6.31c-1.49-13.9-2.86-26.47-4.27-39.36
	c-2.21,1.55-4.02,2.8-6.31,4.39c-1.19-4.11-2.2-7.38-3.52-11.91c-2.12,5.42-3.74,9.53-5.81,14.85c-2.18-3.67-3.45-5.84-5.01-8.49
	c-1.75,3.43-3.07,5.92-4.72,9.18c-2.18-3.86-3.89-6.85-5.94-10.51c-1.47,4.47-2.68,8.09-4.49,13.6c-2.59-5.84-4.33-9.8-6.4-14.37
	c-1.87,4.55-3.3,8.05-4.75,11.57c-0.74-0.09-1.44-0.13-2.15-0.16c-1.72-4.88-3.4-9.74-5.29-15.13c-1.34,3.37-2.33,5.95-3.79,9.68
	c-3.99-8.02-7.22-14.51-10.61-21.43c-1.52,2.58-2.65,4.54-4.3,7.46c-1.84-4.16-3.18-7.12-4.58-10.26c-1.06,2.86-2.02,5.47-3.17,8.55
	c-2.86-1.68-4.95-2.89-7.87-4.58C588.79,482.49,582.48,502.77,567.54,522.01 M895.88,395.86c-0.16-1.09-0.32-2.15-0.53-3.2
	c-16.09,0.88-32.24,1.92-48.38,2.64c-27.94,1.19-54.66,6.98-80.15,19.08c-22.61,10.74-27.59,48.01-7.6,63.73
	c-0.07-18.01,4.83-32.86,20.4-44.16c23.02-16.68,50.13-21,76.23-28.57C869.02,401.6,882.53,399.01,895.88,395.86 M485.92,221.54
	c-0.31-0.53-0.6-1-0.9-1.5c-1.8,0.96-3.71,1.87-5.45,2.95c-28.85,17.87-57.47,36.13-86.68,53.46c-12.3,7.32-25.18,15.1-40.66,12.45
	c-8.15-1.4-16.12-3.6-26.16-5.85c20.91,20.07,42.54,33.19,69.5,31.18c1.9-5.33,2.31-10.55,5.1-13.56
	c12.79-13.87,25.76-27.64,39.6-40.41C454.91,246.73,470.64,234.36,485.92,221.54 M696.78,174.71c8.52,3.8,16.28,7.26,23.8,10.61
	c-0.97,3.29-1.4,4.82-1.95,6.56c3.74,0.3,6.65,0.5,10.15,0.8c-1.64,3.27-3.01,6-4.49,8.93c4.66,0.85,8.66,1.59,12.88,2.37v7.22
	c7.56-0.55,14.77-1.05,22.72-1.64c-0.91-2.95-1.28-4.8-1.97-6.48c-13.85-32.27-38.31-52.48-71.59-62.42
	c-1.92-0.57-5.54,0.6-6.6,2.15c-1.53,2.18-1.8,5.51-1.68,8.34c0.1,2.09,1.68,4.11,2.45,6C689.65,157.71,698.68,168.21,696.78,174.71
	 M328.21,487.16c-1.61-39.05,16.55-43.77,41.42-34.76c0.84-4.92,0.62-10.48,2.83-14.85c6.42-12.89,4.8-25.83,1.99-39.07
	c-1.24,4.49-1.93,9.03-2.59,13.59c-1.25,8.72-6.26,13.13-15.49,13.48c-2.64,0.1-5.32,0.03-8.8,0.03c-0.34,0.46-1.47,2.17-1.72,2.59
	c-11.64-3.18-22.27-6.07-32.95-8.97c0.69,2,1.61,4.51,2.43,7.09c3.83,12.56,8.25,24.88,3.76,38.45
	C315.41,475.85,317.19,479.03,328.21,487.16 M343.11,360.87c0.71-0.22,1.39-0.44,2.05-0.63c-0.9-6.82-1.8-13.6-2.71-20.67
	c16.98-0.94,22.55,12.38,31.09,22.86c-1.58-25.8-14.19-49.23-33.3-56.4c-15.18-5.75-36.94-3.3-51.47,12.01
	C320.56,315.29,333.88,335.54,343.11,360.87 M745.29,579.28c-26.11-36.38-53.8-71.85-46.85-121.65
	c-9.67,6.35-14.28,15.12-14.56,27.31c-0.57,25.24,9.8,46.2,25.64,65.1C719.61,562.08,731.39,571.87,745.29,579.28 M816.63,529.99
	c1.27,1.19,2.51,2.4,3.77,3.61c30.64-32.67,61.24-65.37,91.91-98.07C873.2,459.9,837.85,487.96,816.63,529.99 M225.4,428.1
	c2.23,55.73,53.4,71.71,89.67,52.12c-8.06-2.9-14.03-6.09-20.35-7.09c-6.97-1.11-14.26-0.38-21.43-0.21
	c-14.24,0.34-25.51-4.83-32.71-17.54C235.61,446.67,230.79,437.84,225.4,428.1 M1062.96,455.27c0.57-0.99,1.06-1.93,1.64-2.9
	c-9.76-6.66-19.48-13.32-29.22-19.89c-24.31-16.39-51.37-25.97-79.61-32.77c-8.22-1.98-14.68,2.5-16.77,11.18
	C983.22,417.25,1026.07,427.81,1062.96,455.27 M234.47,392.28c-1.36-0.34-2.73-0.65-4.07-1.02c-2.17,3.33-4.36,6.65-6.48,9.98
	c-8.55,13.23-19.26,24.39-34.91,28.16c-11.86,2.9-24.26,3.88-36.47,4.82c-9.73,0.72-19.53,0.16-29.3,0.16
	c4.29,3.09,8.78,5.38,13.4,5.54c13.79,0.5,27.63,0.63,41.45,0.07c24.77-1.05,42.35-14.41,55.01-34.67
	C235.17,402,234.13,396.71,234.47,392.28 M802.57,631.09c-5.72-33.08-18.29-65.43-8.3-100.59c-11.04,4.23-14.03,8.56-14.62,20.04
	C778.23,579.97,788.75,605.97,802.57,631.09 M515.88,417.27c0.19,2.83,0.06,3.68,0.34,4.44c0.91,2.56,1.53,5.36,2.98,7.65
	c9.9,16.02,7.82,32.57,2.53,49.28c-1.36,4.24-3.36,8.33-5.72,14.15c15.69-8.27,23.34-19.51,23.58-35.18
	C539.87,440.01,530.6,427.84,515.88,417.27 M263.64,363.48c-0.41-3.37-0.81-6.28-1.13-9.18c-0.62-4.91-1.77-9.81-1.65-14.66
	c0.1-2.56,2.45-5.05,3.79-7.54c2.15,1.44,4.72,2.49,6.38,4.38c3.88,4.29,6.97,9.22,10.9,13.4c1.96,2.02,5.11,2.95,7.66,4.39
	c-0.15-2.98,0.85-6.94-0.69-8.74c-7.01-8.34-14.37-16.48-22.43-23.81c-4.38-3.98-10.68-2.53-11.66,3.46
	c-1.8,10.88-2.21,22.08-2.12,33.13C252.73,363.48,257.15,365.41,263.64,363.48 M867.34,280.58c23.75,28.21,46.73,55.51,67.71,80.45
	C924.09,327.88,903.38,298.78,867.34,280.58 M274.38,427.3c0.65,10.76,0,20.11,2.14,28.78c2.3,9.4,9.55,10.24,16.43,3.39
	c2.25-2.27,5.03-4.16,7.81-5.66c8.34-4.49,9.4-12.56,1.87-19.48c0.46,3.11,1.37,5.81,1.16,8.43c-0.18,2.31-1.61,4.51-2.43,6.76
	c-2.12-1.66-5.56-2.95-6.07-5.05C292.65,434.45,284.64,431.62,274.38,427.3 M771.48,638.56c14.91,0.41,24.87-11.89,18.57-23.95
	c-5.48-10.4-14.07-19.11-21.31-28.57c-0.87,0.52-1.74,1.05-2.61,1.59C772.33,604.17,782.94,620.25,771.48,638.56 M621.26,176.99
	c0.88-11.67-3.51-19.35-12.58-24.21c-11.83-6.38-24.05-4.57-36.22-1.96c-4.39,0.97-8.55,3.07-12.81,4.63
	C611.52,158.28,604.06,160.39,621.26,176.99 M1010.69,517.22c44.44-3.92,74.51-27.95,70.47-51.13
	C1058.86,495.44,1061.69,494.5,1010.69,517.22 M156.99,428.03c20.37,0.85,49.09-11.33,62.78-28.54c1.96-2.46,1.59-6.76,2.31-10.2
	c-3.51,1.3-7.63,1.89-10.26,4.17c-4.66,4.05-7.5,10.76-12.64,13.63C184.87,415.15,169.75,421.79,156.99,428.03 M875.87,607.56
	c-15.34,11.66,1.43,44.19,18.57,56.32c-4.33-9.83-8.97-18.48-11.97-27.69C879.38,626.76,877.93,616.86,875.87,607.56 M302.79,264.79
	c-22.09-14-41.91-4.95-53.33,17.79C265.43,266.53,283.25,262.86,302.79,264.79 M902.7,596.92c-14.65,11.6-9.59,45.61,7.9,58.03
	C903.12,636.1,896.82,617.8,902.7,596.92 M321.21,227.76c20.47-16.22,17.15-17.02,50.25-21.04
	C354.4,196.12,332.31,203.08,321.21,227.76 M909.5,572.01c16.2-11.21,31.8-22.06,47.27-32.77
	C936.15,542.81,918.37,550.59,909.5,572.01 M245.51,321.63c-13.42-11.89-36.04-3.99-41.39,15.52
	C215.91,325.24,229.96,322.81,245.51,321.63 M547.74,726.33c9.17,6.22,18.52,6.04,22.93,3.14c-3.63-4.47-7.9-9.76-12.57-15.55
	C555.69,716.86,551.91,721.32,547.74,726.33 M357.85,509.49c7.72-7.53,7.25-18.86-1.77-21.94c-1.86-0.59-4.67,0.31-6.4,1.46
	c-0.87,0.56-0.88,3.64-0.22,5.05C351.95,499.2,354.88,504.14,357.85,509.49 M643.32,723.37c-3.35,5.19-5.81,9-8.28,12.85
	c4.05,1.41,8.05,3.12,12.17,4.16c2.21,0.57,4.72-0.12,8.64-0.32C651.76,734.6,648.39,730.1,643.32,723.37 M458.17,506.62
	c-13.81-3.55-27.67-7.12-40.5-10.4C423.92,504.86,444.77,511.8,458.17,506.62 M375.82,471.85c1.49,5,2.92,9.59,4.79,15.83
	c3.64-1.66,7.56-3.01,10.82-5.26c0.74-0.53-0.1-4.64-1.31-6.37C386.46,470.91,381.38,469.6,375.82,471.85 M215.82,383.66
	c0.15,1.09,0.29,2.17,0.44,3.27c11.79-3.88,18.64,1.97,24.61,11.26c-1.41-6.38-2.87-14.35-7.29-16.64
	C229.18,379.31,221.83,382.73,215.82,383.66 M377.5,456.63c5.73,5.11,11.54,10.26,17.55,15.53
	C394.63,459.69,388.66,454.63,377.5,456.63 M560.17,602.59c-6.98-5.45-14.43-11.23-21.1-16.42
	C539.69,596.21,549.02,603.83,560.17,602.59 M268.81,339.02c-2.93,10.02,0.55,14.99,10.92,16.98
	C275.63,349.6,272.23,344.31,268.81,339.02 M267.9,448.49c0.81-7.74,1.65-15.49,2.55-23.78C263.14,431.7,262.41,440.23,267.9,448.49
	 M373.26,495.56c-3.32,6.29-7.4,14.06-10.95,20.7C370.77,513.28,374.19,506.79,373.26,495.56"/>
</svg>
