<svg
  class="img-fluid"
  id="outputsvg"
  xmlns="http://www.w3.org/2000/svg"
  width="3180"
  height="440"
  viewBox="0 0 31800 4400"
>
  <g id="lzccJutIdldsaoe0lyPVKB" fill="none" style="transform: none">
    <g style="transform: none">
      <path
        id="p1DOjhOEAH"
        d="M0 2200 l0 -2200 15900 0 15900 0 0 2200 0 2200 -15900 0 -15900 0 0 -2200z m31680 2050 l0 -40 -15785 0 -15785 0 0 40 0 40 15785 0 15785 0 0 -40z m-30256 -1076 c316 -60 524 -244 565 -501 19 -122 -28 -260 -121 -359 -103 -109 -227 -162 -577 -250 -280 -70 -364 -102 -408 -161 -26 -33 -28 -44 -28 -122 0 -102 15 -137 77 -181 74 -54 131 -65 333 -64 201 1 256 11 426 80 49 20 91 35 93 33 1 -2 26 -62 55 -133 59 -145 62 -131 -36 -176 -265 -123 -651 -148 -907 -60 -221 76 -376 231 -421 422 -19 79 -19 138 0 207 49 184 181 306 420 385 44 15 177 51 295 80 251 62 337 98 381 159 26 36 29 48 29 114 0 121 -34 170 -147 214 -49 19 -83 23 -218 27 -235 6 -380 -23 -585 -119 -47 -22 -87 -40 -89 -40 -2 0 -31 57 -63 128 -68 148 -73 129 56 194 135 69 346 126 526 142 73 7 259 -4 344 -19z m3019 0 c170 -32 354 -105 485 -191 l52 -35 0 -369 0 -369 -180 0 -180 0 -2 293 -3 292 -100 35 c-99 34 -102 35 -270 35 -194 0 -238 -10 -368 -77 -142 -74 -257 -229 -292 -395 -19 -88 -19 -279 0 -368 45 -216 215 -392 435 -451 83 -22 338 -26 420 -5 80 19 192 75 256 127 l55 45 31 -27 c18 -14 70 -61 117 -105 l85 -79 -25 -26 c-85 -91 -300 -207 -450 -243 -470 -113 -944 60 -1188 434 -210 321 -196 777 32 1080 248 330 660 480 1090 399z m4256 16 c431 -56 681 -312 731 -750 5 -47 10 -331 10 -632 l0 -548 -195 0 -195 0 0 564 c0 348 -4 594 -11 642 -29 210 -104 321 -259 381 -36 13 -78 17 -200 17 -138 0 -161 -2 -213 -23 -81 -32 -134 -76 -177 -148 -75 -125 -75 -122 -78 -815 l-3 -618 -200 0 -201 0 5 598 c5 645 5 651 62 823 45 134 142 269 252 351 170 125 438 188 672 158z m12444 -16 c340 -64 641 -306 758 -607 110 -284 85 -594 -68 -850 -61 -102 -202 -248 -305 -315 -428 -277 -1018 -218 -1365 136 -214 218 -318 531 -269 810 57 328 249 588 541 732 219 108 461 140 708 94z m2125 16 c238 -25 434 -110 587 -252 l60 -56 -80 -74 c-44 -41 -96 -88 -115 -105 l-36 -31 -59 49 c-123 102 -260 149 -435 148 -319 0 -545 -147 -631 -411 -22 -66 -24 -90 -24 -248 0 -158 2 -182 24 -249 48 -143 153 -268 282 -334 99 -50 162 -66 299 -73 197 -11 353 35 485 145 l60 49 45 -41 c25 -22 76 -69 114 -105 l68 -64 -33 -35 c-98 -101 -284 -204 -441 -243 -579 -142 -1147 177 -1282 722 -52 207 -36 393 49 605 44 108 110 207 204 302 152 155 355 258 571 290 41 6 86 13 100 15 47 7 95 6 188 -4z m7550 -20 c284 -58 478 -219 537 -446 20 -77 19 -145 -3 -226 -59 -210 -231 -326 -624 -418 -350 -83 -442 -121 -484 -202 -18 -35 -18 -158 0 -201 18 -45 74 -91 143 -118 54 -22 71 -24 248 -23 211 1 260 10 430 78 49 20 92 33 96 29 4 -5 30 -64 58 -133 l50 -125 -90 -43 c-173 -84 -430 -128 -644 -112 -240 19 -417 92 -546 227 -109 112 -155 231 -147 378 10 174 104 306 283 397 102 52 190 81 425 137 357 86 430 134 430 282 0 171 -114 238 -406 239 -213 0 -383 -39 -564 -130 l-76 -38 -57 129 c-32 71 -55 134 -52 139 12 19 138 83 228 115 101 36 249 70 367 84 100 13 291 3 398 -19z m-28058 -955 l0 -955 -195 0 -195 0 0 955 0 955 195 0 195 0 0 -955z m3090 360 l0 -595 34 0 c32 0 52 23 522 595 l488 595 153 0 153 0 0 -955 0 -955 -195 0 -195 0 0 590 0 590 -32 0 c-31 0 -58 -30 -516 -590 l-483 -590 -160 0 -159 0 0 955 0 955 195 0 195 0 0 -595z m4460 19 l0 -575 37 3 37 3 283 465 283 465 72 3 73 2 289 -485 288 -485 34 0 34 0 0 590 0 590 183 -2 182 -3 0 -137 c0 -76 -1 -505 -3 -953 l-2 -815 -158 0 -158 0 -359 605 -358 605 -36 0 -36 0 -364 -605 -365 -605 -158 0 -158 0 0 955 0 955 180 0 180 0 0 -576z m3276 546 c7 -14 47 -109 89 -212 l77 -188 484 0 483 0 15 28 c7 15 48 111 91 215 l77 187 194 0 c107 0 194 -2 194 -4 0 -2 -191 -431 -424 -953 l-424 -948 -199 -3 -198 -2 -417 937 c-230 516 -420 946 -424 956 -6 16 5 17 182 15 l189 -3 11 -25z m2919 20 c309 -21 531 -109 712 -283 145 -139 222 -282 265 -487 47 -223 -5 -500 -128 -686 -136 -205 -359 -352 -630 -415 -95 -23 -118 -24 -621 -27 l-523 -3 0 949 c0 522 3 952 7 955 10 10 767 8 918 -3z m2382 -2 c7 -10 732 -1680 810 -1865 l13 -33 -183 0 -183 0 -300 695 -299 695 -36 0 -35 0 -295 -692 -295 -693 -202 -3 c-111 -1 -202 0 -202 4 0 3 176 414 391 912 216 499 400 926 410 950 l18 42 189 0 c140 0 192 -3 199 -12z m5570 0 c5 -7 47 -104 93 -215 l83 -203 482 0 c374 0 485 3 492 13 5 6 47 103 93 215 l83 202 193 0 c107 0 194 -2 194 -5 0 -2 -191 -431 -424 -952 l-424 -948 -198 -2 -199 -3 -417 938 c-229 515 -420 945 -424 955 -6 16 7 17 179 17 136 0 187 -3 194 -12z m2673 -788 l0 -800 315 0 315 0 0 -155 0 -155 -830 0 -830 0 0 155 0 155 315 0 315 0 0 793 c0 437 3 797 7 800 3 4 93 7 200 7 l193 0 0 -800z m2398 643 l3 -153 -536 0 -535 0 0 -260 0 -260 455 0 455 0 0 -145 0 -145 -455 0 -455 0 0 -245 0 -245 515 0 515 0 0 -150 0 -150 -715 0 -715 0 0 948 c0 522 3 952 7 955 3 4 333 6 732 5 l726 -3 3 -152z m2150 -2841 l3 -42 -15783 2 -15783 3 -3 28 c-2 16 -1 35 2 43 5 12 2183 14 15783 12 l15778 -3 3 -43z"
      ></path>
      <path
        id="p1BsvvLz1Y"
        d="M20780 2860 c-226 -36 -413 -208 -476 -436 -8 -32 -18 -111 -21 -175 -11 -232 52 -408 195 -541 56 -53 180 -118 262 -139 82 -21 318 -18 395 5 219 66 371 229 421 454 12 55 15 107 12 215 -4 121 -8 153 -31 220 -66 190 -204 323 -397 382 -65 19 -277 28 -360 15z"
      ></path>
      <path
        id="pRmJfF6Wg"
        d="M13900 2425 c0 -22 56 -168 151 -400 l152 -365 37 0 37 0 152 366 c94 227 151 379 151 400 l0 34 -340 0 -340 0 0 -35z"
      ></path>
      <path
        id="p17vxUOphW"
        d="M15980 2210 l0 -642 308 5 c312 5 350 9 452 49 159 62 281 190 331 347 29 92 37 316 15 421 -36 169 -141 310 -287 383 -131 66 -159 70 -506 74 l-313 5 0 -642z"
      ></path>
      <path
        id="pwlxMZh06"
        d="M24780 2428 c0 -20 61 -181 151 -400 l152 -368 37 0 c21 0 40 6 43 13 2 6 70 171 151 365 92 223 146 365 146 387 l0 35 -340 0 -340 0 0 -32z"
      ></path>
    </g>
  </g>
  <g
    id="l433yCQH7MfU3FjyEkQca0s"
    fill="#940019"
    style="transform: none"
  >
    <g style="transform: none">
      <path
        id="petirM2jY"
        d="M80 4250 l0 -70 15815 0 15815 0 0 70 0 70 -15815 0 -15815 0 0 -70z"
      ></path>
      <path
        id="psWYSYfKV"
        d="M1050 3224 c-190 -19 -398 -76 -538 -149 -140 -73 -135 -47 -46 -244 l77 -171 31 21 c50 33 185 95 267 123 127 42 247 59 394 53 143 -5 217 -25 277 -75 65 -55 78 -152 29 -219 -44 -61 -130 -97 -381 -159 -118 -29 -251 -65 -295 -80 -291 -96 -435 -266 -435 -514 0 -226 118 -409 330 -514 119 -58 221 -84 378 -96 194 -15 406 8 572 61 65 21 230 97 230 106 0 5 -130 324 -136 335 -2 4 -41 -11 -87 -32 -180 -83 -341 -117 -511 -107 -118 7 -187 25 -244 67 -54 39 -76 82 -76 151 -2 121 67 162 435 253 350 88 474 141 577 250 181 191 169 514 -26 712 -106 107 -242 174 -421 208 -83 16 -319 27 -401 20z"
      ></path>
      <path
        id="paGv5mALX"
        d="M4055 3219 c-315 -43 -556 -180 -732 -414 -81 -107 -140 -247 -169 -402 -22 -121 -15 -346 15 -456 82 -297 270 -520 549 -649 231 -107 548 -133 821 -67 161 39 361 150 466 259 l40 42 -61 56 c-34 32 -100 92 -148 136 l-86 78 -61 -56 c-67 -60 -191 -126 -279 -148 -78 -19 -278 -15 -360 6 -219 58 -390 235 -435 451 -61 292 59 582 292 703 124 64 177 76 338 76 134 0 144 -1 240 -34 l100 -35 3 -292 2 -293 210 0 210 0 0 399 0 399 -52 35 c-131 86 -315 158 -488 192 -105 20 -321 27 -415 14z"
      ></path>
      <path
        id="pZnex1XP"
        d="M8440 3223 c-84 -8 -231 -48 -306 -83 -234 -109 -366 -287 -430 -580 -14 -64 -17 -170 -21 -702 l-4 -628 230 0 230 0 3 618 c3 693 3 690 78 815 43 72 96 116 177 148 50 20 76 23 183 23 93 0 136 -5 170 -18 154 -59 230 -170 259 -380 7 -48 11 -294 11 -642 l0 -564 225 0 225 0 0 578 c0 317 -5 615 -10 662 -44 386 -251 638 -591 724 -125 31 -295 43 -429 29z"
      ></path>
      <path
        id="pVGmlVDN6"
        d="M20771 3220 c-560 -71 -942 -510 -918 -1055 12 -263 103 -477 280 -657 221 -227 556 -341 901 -308 291 27 506 125 691 314 188 192 275 415 275 699 -1 444 -253 798 -677 950 -146 53 -387 77 -552 57z m339 -406 c192 -57 332 -191 396 -381 36 -103 44 -266 20 -375 -50 -225 -203 -389 -421 -454 -75 -22 -256 -24 -335 -5 -82 20 -206 86 -262 139 -61 56 -120 142 -147 210 -53 135 -63 307 -26 446 60 227 249 400 475 436 76 12 234 4 300 -16z"
      ></path>
      <path
        id="pvnm5mbSH"
        d="M23050 3224 c-14 -2 -59 -9 -100 -15 -216 -32 -419 -135 -571 -290 -166 -168 -253 -357 -280 -605 -23 -214 32 -467 138 -633 150 -236 374 -395 642 -455 396 -90 800 12 1046 263 l49 51 -24 23 c-14 13 -79 74 -146 135 l-121 112 -49 -46 c-143 -134 -309 -194 -493 -180 -118 10 -163 22 -261 70 -138 67 -241 188 -291 337 -21 65 -24 92 -24 219 0 126 3 155 24 218 69 211 243 360 466 399 221 38 418 -18 571 -164 l56 -54 95 88 c53 48 119 109 147 135 l51 48 -73 70 c-162 157 -356 244 -604 270 -91 9 -197 11 -248 4z"
      ></path>
      <path
        id="pr9UkCi4n"
        d="M30385 3219 c-113 -14 -276 -52 -376 -88 -88 -32 -239 -115 -239 -130 0 -5 23 -60 51 -123 28 -62 62 -137 75 -166 l24 -54 27 20 c47 33 164 88 253 120 229 80 532 83 660 4 51 -31 90 -96 90 -151 0 -53 -41 -113 -99 -144 -71 -39 -142 -62 -331 -108 -344 -83 -469 -136 -581 -249 -92 -93 -121 -165 -127 -315 -7 -182 32 -289 147 -408 132 -138 303 -207 560 -228 154 -12 337 3 486 40 122 31 305 111 305 133 0 23 -128 333 -137 332 -4 0 -39 -15 -76 -33 -174 -82 -345 -118 -522 -108 -201 10 -315 89 -315 217 0 126 86 173 498 270 172 40 269 73 365 122 187 97 277 240 277 443 0 296 -207 514 -555 586 -108 22 -348 32 -460 18z"
      ></path>
      <path
        id="pWzew58DO"
        d="M2340 2215 l0 -985 225 0 225 0 0 985 0 985 -225 0 -225 0 0 -985z"
      ></path>
      <path
        id="p7iVb9Ugm"
        d="M5430 2215 l0 -985 189 0 190 0 483 590 483 590 3 -590 2 -590 225 0 225 0 0 985 0 985 -183 0 -183 0 -489 -596 -490 -597 -3 597 -2 596 -225 0 -225 0 0 -985z"
      ></path>
      <path
        id="pOfTVLoKo"
        d="M9920 2215 l0 -985 188 0 188 0 365 605 c200 333 367 605 370 605 3 0 167 -272 364 -605 l359 -605 188 0 188 0 2 815 c2 448 3 890 3 983 l0 167 -212 3 -213 2 -2 -592 -3 -593 -290 487 -290 488 -101 0 -101 0 -278 -457 c-153 -252 -284 -465 -291 -473 -12 -12 -14 74 -14 563 l0 577 -210 0 -210 0 0 -985z"
      ></path>
      <path
        id="p19mfoHenL"
        d="M13147 3193 c-2 -5 192 -448 432 -986 l436 -977 228 2 229 3 429 960 c236 528 432 970 435 983 l6 22 -235 0 -235 0 -77 -187 c-43 -104 -84 -200 -91 -215 l-15 -28 -453 0 -454 0 -77 188 c-42 103 -82 198 -89 212 l-11 25 -227 3 c-125 1 -228 -1 -231 -5z m1398 -780 c-49 -130 -300 -723 -305 -723 -5 0 -265 613 -306 723 -6 16 13 17 306 17 293 0 312 -1 305 -17z"
      ></path>
      <path
        id="pJaPPUUbz"
        d="M15557 3193 c-4 -3 -7 -447 -7 -985 l0 -979 553 3 c535 3 555 4 651 27 211 49 394 148 522 283 118 125 177 231 224 403 33 120 39 347 12 475 -42 205 -120 348 -265 487 -181 174 -403 262 -712 283 -151 11 -968 13 -978 3z m1078 -397 c222 -61 376 -220 421 -436 21 -99 14 -268 -15 -361 -49 -156 -172 -285 -331 -347 -100 -39 -142 -44 -422 -49 l-278 -5 0 612 0 612 283 -5 c220 -3 295 -8 342 -21z"
      ></path>
      <path
        id="px4b0KMNF"
        d="M18460 3178 c-6 -13 -197 -455 -425 -983 l-414 -960 237 -3 c130 -1 241 -1 247 2 5 2 142 315 304 695 162 380 297 691 300 691 3 0 141 -313 305 -695 l300 -695 223 0 c123 0 223 4 223 8 0 10 -831 1930 -843 1950 -6 9 -63 12 -228 12 -218 0 -219 0 -229 -22z"
      ></path>
      <path
        id="pPPs2vzzZ"
        d="M24032 3181 c2 -11 197 -454 433 -985 l430 -966 229 3 228 2 434 970 c239 534 434 976 434 983 0 9 -53 12 -234 12 l-233 0 -83 -202 c-46 -112 -88 -209 -93 -215 -7 -10 -112 -13 -462 -13 l-452 0 -83 203 c-46 111 -88 208 -93 215 -7 9 -66 12 -234 12 -216 0 -224 -1 -221 -19z m1398 -756 c0 -8 -299 -728 -305 -733 -3 -3 -7 -3 -10 -1 -5 5 -305 729 -305 735 0 2 140 4 310 4 171 0 310 -2 310 -5z"
      ></path>
      <path
        id="pAyOTh1AR"
        d="M26707 3193 c-4 -3 -7 -363 -7 -800 l0 -793 -315 0 -315 0 0 -185 0 -185 860 0 860 0 0 185 0 185 -315 0 -315 0 0 800 0 800 -223 0 c-123 0 -227 -3 -230 -7z"
      ></path>
      <path
        id="p1fIBIlpk"
        d="M28037 3193 c-4 -3 -7 -447 -7 -985 l0 -978 745 0 745 0 0 180 0 180 -515 0 -515 0 0 215 0 215 455 0 455 0 0 175 0 175 -455 0 -455 0 0 230 0 230 535 0 535 0 -2 183 -3 182 -756 3 c-415 1 -759 -1 -762 -5z"
      ></path>
      <path
        id="p3dm2L2Rl"
        d="M84 236 c-3 -7 -4 -40 -2 -72 l3 -59 15813 -3 15813 -2 -3 72 -3 73 -15808 3 c-13333 2 -15808 0 -15813 -12z"
      ></path>
    </g>
  </g>
</svg>
