<svg width="210" height="167" viewBox="0 0 210 167" fill="none" xmlns="http://www.w3.org/2000/svg">
<line x1="9.20493" y1="149.818" x2="0.884925" y2="165.626" stroke="#950019" stroke-width="2"/>
<line x1="9.20493" y1="64.9538" x2="0.884925" y2="80.7618" stroke="#950019" stroke-width="2"/>
<line x1="9.20493" y1="107.386" x2="0.884925" y2="123.194" stroke="#950019" stroke-width="2"/>
<line x1="9.20493" y1="22.5218" x2="0.884925" y2="38.3298" stroke="#950019" stroke-width="2"/>
<line x1="9.20493" y1="128.602" x2="0.884925" y2="144.41" stroke="#950019" stroke-width="2"/>
<line x1="9.20493" y1="43.7378" x2="0.884925" y2="59.5458" stroke="#950019" stroke-width="2"/>
<line x1="9.20493" y1="86.1698" x2="0.884925" y2="101.978" stroke="#950019" stroke-width="2"/>
<line x1="9.20493" y1="1.30577" x2="0.884925" y2="17.1138" stroke="#950019" stroke-width="2"/>
<line x1="84.085" y1="149.818" x2="75.765" y2="165.626" stroke="#950019" stroke-width="2"/>
<line x1="84.085" y1="64.9538" x2="75.765" y2="80.7618" stroke="#950019" stroke-width="2"/>
<line x1="84.085" y1="107.386" x2="75.765" y2="123.194" stroke="#950019" stroke-width="2"/>
<line x1="84.085" y1="22.5218" x2="75.765" y2="38.3298" stroke="#950019" stroke-width="2"/>
<line x1="84.085" y1="128.602" x2="75.765" y2="144.41" stroke="#950019" stroke-width="2"/>
<line x1="84.085" y1="43.7378" x2="75.765" y2="59.5458" stroke="#950019" stroke-width="2"/>
<line x1="84.085" y1="86.1698" x2="75.765" y2="101.978" stroke="#950019" stroke-width="2"/>
<line x1="84.085" y1="1.30577" x2="75.765" y2="17.1138" stroke="#950019" stroke-width="2"/>
<line x1="46.645" y1="149.818" x2="38.325" y2="165.626" stroke="#950019" stroke-width="2"/>
<line x1="46.645" y1="64.9538" x2="38.325" y2="80.7618" stroke="#950019" stroke-width="2"/>
<line x1="46.645" y1="107.386" x2="38.325" y2="123.194" stroke="#950019" stroke-width="2"/>
<line x1="46.645" y1="22.5218" x2="38.325" y2="38.3298" stroke="#950019" stroke-width="2"/>
<line x1="46.645" y1="128.602" x2="38.325" y2="144.41" stroke="#950019" stroke-width="2"/>
<line x1="46.645" y1="43.7378" x2="38.325" y2="59.5458" stroke="#950019" stroke-width="2"/>
<line x1="46.645" y1="86.1698" x2="38.325" y2="101.978" stroke="#950019" stroke-width="2"/>
<line x1="46.645" y1="1.30577" x2="38.325" y2="17.1138" stroke="#950019" stroke-width="2"/>
<line x1="121.525" y1="149.818" x2="113.205" y2="165.626" stroke="#950019" stroke-width="2"/>
<line x1="121.525" y1="64.9538" x2="113.205" y2="80.7618" stroke="#950019" stroke-width="2"/>
<line x1="121.525" y1="107.386" x2="113.205" y2="123.194" stroke="#950019" stroke-width="2"/>
<line x1="121.525" y1="22.5218" x2="113.205" y2="38.3298" stroke="#950019" stroke-width="2"/>
<line x1="121.525" y1="128.602" x2="113.205" y2="144.41" stroke="#950019" stroke-width="2"/>
<line x1="121.525" y1="43.7378" x2="113.205" y2="59.5458" stroke="#950019" stroke-width="2"/>
<line x1="121.525" y1="86.1698" x2="113.205" y2="101.978" stroke="#950019" stroke-width="2"/>
<line x1="121.525" y1="1.30577" x2="113.205" y2="17.1138" stroke="#950019" stroke-width="2"/>
<line x1="183.925" y1="149.818" x2="175.605" y2="165.626" stroke="#950019" stroke-width="2"/>
<line x1="183.925" y1="64.9538" x2="175.605" y2="80.7618" stroke="#950019" stroke-width="2"/>
<line x1="183.925" y1="107.386" x2="175.605" y2="123.194" stroke="#950019" stroke-width="2"/>
<line x1="183.925" y1="22.5218" x2="175.605" y2="38.3298" stroke="#950019" stroke-width="2"/>
<line x1="183.925" y1="128.602" x2="175.605" y2="144.41" stroke="#950019" stroke-width="2"/>
<line x1="183.925" y1="43.7378" x2="175.605" y2="59.5458" stroke="#950019" stroke-width="2"/>
<line x1="183.925" y1="86.1698" x2="175.605" y2="101.978" stroke="#950019" stroke-width="2"/>
<line x1="183.925" y1="1.30577" x2="175.605" y2="17.1138" stroke="#950019" stroke-width="2"/>
<line x1="21.6849" y1="149.818" x2="13.3649" y2="165.626" stroke="#950019" stroke-width="2"/>
<line x1="21.6849" y1="64.9538" x2="13.3649" y2="80.7618" stroke="#950019" stroke-width="2"/>
<line x1="21.6849" y1="107.386" x2="13.3649" y2="123.194" stroke="#950019" stroke-width="2"/>
<line x1="21.6849" y1="22.5218" x2="13.3649" y2="38.3298" stroke="#950019" stroke-width="2"/>
<line x1="21.6849" y1="128.602" x2="13.3649" y2="144.41" stroke="#950019" stroke-width="2"/>
<line x1="21.6849" y1="43.7378" x2="13.3649" y2="59.5458" stroke="#950019" stroke-width="2"/>
<line x1="21.6849" y1="86.1698" x2="13.3649" y2="101.978" stroke="#950019" stroke-width="2"/>
<line x1="21.6849" y1="1.30577" x2="13.3649" y2="17.1138" stroke="#950019" stroke-width="2"/>
<line x1="96.565" y1="149.818" x2="88.245" y2="165.626" stroke="#950019" stroke-width="2"/>
<line x1="96.565" y1="64.9538" x2="88.245" y2="80.7618" stroke="#950019" stroke-width="2"/>
<line x1="96.565" y1="107.386" x2="88.245" y2="123.194" stroke="#950019" stroke-width="2"/>
<line x1="96.565" y1="22.5218" x2="88.245" y2="38.3298" stroke="#950019" stroke-width="2"/>
<line x1="96.565" y1="128.602" x2="88.245" y2="144.41" stroke="#950019" stroke-width="2"/>
<line x1="96.565" y1="43.7378" x2="88.245" y2="59.5458" stroke="#950019" stroke-width="2"/>
<line x1="96.565" y1="86.1698" x2="88.245" y2="101.978" stroke="#950019" stroke-width="2"/>
<line x1="96.565" y1="1.30577" x2="88.245" y2="17.1138" stroke="#950019" stroke-width="2"/>
<line x1="158.965" y1="149.818" x2="150.645" y2="165.626" stroke="#950019" stroke-width="2"/>
<line x1="158.965" y1="64.9538" x2="150.645" y2="80.7618" stroke="#950019" stroke-width="2"/>
<line x1="158.965" y1="107.386" x2="150.645" y2="123.194" stroke="#950019" stroke-width="2"/>
<line x1="158.965" y1="22.5218" x2="150.645" y2="38.3298" stroke="#950019" stroke-width="2"/>
<line x1="158.965" y1="128.602" x2="150.645" y2="144.41" stroke="#950019" stroke-width="2"/>
<line x1="158.965" y1="43.7378" x2="150.645" y2="59.5458" stroke="#950019" stroke-width="2"/>
<line x1="158.965" y1="86.1698" x2="150.645" y2="101.978" stroke="#950019" stroke-width="2"/>
<line x1="158.965" y1="1.30577" x2="150.645" y2="17.1138" stroke="#950019" stroke-width="2"/>
<line x1="59.125" y1="149.818" x2="50.805" y2="165.626" stroke="#950019" stroke-width="2"/>
<line x1="59.125" y1="64.9538" x2="50.805" y2="80.7618" stroke="#950019" stroke-width="2"/>
<line x1="59.125" y1="107.386" x2="50.805" y2="123.194" stroke="#950019" stroke-width="2"/>
<line x1="59.125" y1="22.5218" x2="50.805" y2="38.3298" stroke="#950019" stroke-width="2"/>
<line x1="59.125" y1="128.602" x2="50.805" y2="144.41" stroke="#950019" stroke-width="2"/>
<line x1="59.125" y1="43.7378" x2="50.805" y2="59.5458" stroke="#950019" stroke-width="2"/>
<line x1="59.125" y1="86.1698" x2="50.805" y2="101.978" stroke="#950019" stroke-width="2"/>
<line x1="59.125" y1="1.30577" x2="50.805" y2="17.1138" stroke="#950019" stroke-width="2"/>
<line x1="134.005" y1="149.818" x2="125.685" y2="165.626" stroke="#950019" stroke-width="2"/>
<line x1="134.005" y1="64.9538" x2="125.685" y2="80.7618" stroke="#950019" stroke-width="2"/>
<line x1="134.005" y1="107.386" x2="125.685" y2="123.194" stroke="#950019" stroke-width="2"/>
<line x1="134.005" y1="22.5218" x2="125.685" y2="38.3298" stroke="#950019" stroke-width="2"/>
<line x1="134.005" y1="128.602" x2="125.685" y2="144.41" stroke="#950019" stroke-width="2"/>
<line x1="134.005" y1="43.7378" x2="125.685" y2="59.5458" stroke="#950019" stroke-width="2"/>
<line x1="134.005" y1="86.1698" x2="125.685" y2="101.978" stroke="#950019" stroke-width="2"/>
<line x1="134.005" y1="1.30577" x2="125.685" y2="17.1138" stroke="#950019" stroke-width="2"/>
<line x1="196.405" y1="149.818" x2="188.085" y2="165.626" stroke="#950019" stroke-width="2"/>
<line x1="196.405" y1="64.9538" x2="188.085" y2="80.7618" stroke="#950019" stroke-width="2"/>
<line x1="196.405" y1="107.386" x2="188.085" y2="123.194" stroke="#950019" stroke-width="2"/>
<line x1="196.405" y1="22.5218" x2="188.085" y2="38.3298" stroke="#950019" stroke-width="2"/>
<line x1="196.405" y1="128.602" x2="188.085" y2="144.41" stroke="#950019" stroke-width="2"/>
<line x1="196.405" y1="43.7378" x2="188.085" y2="59.5458" stroke="#950019" stroke-width="2"/>
<line x1="196.405" y1="86.1698" x2="188.085" y2="101.978" stroke="#950019" stroke-width="2"/>
<line x1="196.405" y1="1.30577" x2="188.085" y2="17.1138" stroke="#950019" stroke-width="2"/>
<line x1="34.165" y1="149.818" x2="25.845" y2="165.626" stroke="#950019" stroke-width="2"/>
<line x1="34.165" y1="64.9538" x2="25.845" y2="80.7618" stroke="#950019" stroke-width="2"/>
<line x1="34.165" y1="107.386" x2="25.845" y2="123.194" stroke="#950019" stroke-width="2"/>
<line x1="34.165" y1="22.5218" x2="25.845" y2="38.3298" stroke="#950019" stroke-width="2"/>
<line x1="34.165" y1="128.602" x2="25.845" y2="144.41" stroke="#950019" stroke-width="2"/>
<line x1="34.165" y1="43.7378" x2="25.845" y2="59.5458" stroke="#950019" stroke-width="2"/>
<line x1="34.165" y1="86.1698" x2="25.845" y2="101.978" stroke="#950019" stroke-width="2"/>
<line x1="34.165" y1="1.30577" x2="25.845" y2="17.1138" stroke="#950019" stroke-width="2"/>
<line x1="109.045" y1="149.818" x2="100.725" y2="165.626" stroke="#950019" stroke-width="2"/>
<line x1="109.045" y1="64.9538" x2="100.725" y2="80.7618" stroke="#950019" stroke-width="2"/>
<line x1="109.045" y1="107.386" x2="100.725" y2="123.194" stroke="#950019" stroke-width="2"/>
<line x1="109.045" y1="22.5218" x2="100.725" y2="38.3298" stroke="#950019" stroke-width="2"/>
<line x1="109.045" y1="128.602" x2="100.725" y2="144.41" stroke="#950019" stroke-width="2"/>
<line x1="109.045" y1="43.7378" x2="100.725" y2="59.5458" stroke="#950019" stroke-width="2"/>
<line x1="109.045" y1="86.1698" x2="100.725" y2="101.978" stroke="#950019" stroke-width="2"/>
<line x1="109.045" y1="1.30577" x2="100.725" y2="17.1138" stroke="#950019" stroke-width="2"/>
<line x1="171.445" y1="149.818" x2="163.125" y2="165.626" stroke="#950019" stroke-width="2"/>
<line x1="171.445" y1="64.9538" x2="163.125" y2="80.7618" stroke="#950019" stroke-width="2"/>
<line x1="171.445" y1="107.386" x2="163.125" y2="123.194" stroke="#950019" stroke-width="2"/>
<line x1="171.445" y1="22.5218" x2="163.125" y2="38.3298" stroke="#950019" stroke-width="2"/>
<line x1="171.445" y1="128.602" x2="163.125" y2="144.41" stroke="#950019" stroke-width="2"/>
<line x1="171.445" y1="43.7378" x2="163.125" y2="59.5458" stroke="#950019" stroke-width="2"/>
<line x1="171.445" y1="86.1698" x2="163.125" y2="101.978" stroke="#950019" stroke-width="2"/>
<line x1="171.445" y1="1.30577" x2="163.125" y2="17.1138" stroke="#950019" stroke-width="2"/>
<line x1="71.605" y1="149.818" x2="63.285" y2="165.626" stroke="#950019" stroke-width="2"/>
<line x1="71.605" y1="64.9538" x2="63.285" y2="80.7618" stroke="#950019" stroke-width="2"/>
<line x1="71.605" y1="107.386" x2="63.285" y2="123.194" stroke="#950019" stroke-width="2"/>
<line x1="71.605" y1="22.5218" x2="63.285" y2="38.3298" stroke="#950019" stroke-width="2"/>
<line x1="71.605" y1="128.602" x2="63.285" y2="144.41" stroke="#950019" stroke-width="2"/>
<line x1="71.605" y1="43.7378" x2="63.285" y2="59.5458" stroke="#950019" stroke-width="2"/>
<line x1="71.605" y1="86.1698" x2="63.285" y2="101.978" stroke="#950019" stroke-width="2"/>
<line x1="71.605" y1="1.30577" x2="63.285" y2="17.1138" stroke="#950019" stroke-width="2"/>
<line x1="146.485" y1="149.818" x2="138.165" y2="165.626" stroke="#950019" stroke-width="2"/>
<line x1="146.485" y1="64.9538" x2="138.165" y2="80.7618" stroke="#950019" stroke-width="2"/>
<line x1="146.485" y1="107.386" x2="138.165" y2="123.194" stroke="#950019" stroke-width="2"/>
<line x1="146.485" y1="22.5218" x2="138.165" y2="38.3298" stroke="#950019" stroke-width="2"/>
<line x1="146.485" y1="128.602" x2="138.165" y2="144.41" stroke="#950019" stroke-width="2"/>
<line x1="146.485" y1="43.7378" x2="138.165" y2="59.5458" stroke="#950019" stroke-width="2"/>
<line x1="146.485" y1="86.1698" x2="138.165" y2="101.978" stroke="#950019" stroke-width="2"/>
<line x1="146.485" y1="1.30577" x2="138.165" y2="17.1138" stroke="#950019" stroke-width="2"/>
<line x1="208.885" y1="149.818" x2="200.565" y2="165.626" stroke="#950019" stroke-width="2"/>
<line x1="208.885" y1="64.9538" x2="200.565" y2="80.7618" stroke="#950019" stroke-width="2"/>
<line x1="208.885" y1="107.386" x2="200.565" y2="123.194" stroke="#950019" stroke-width="2"/>
<line x1="208.885" y1="22.5218" x2="200.565" y2="38.3298" stroke="#950019" stroke-width="2"/>
<line x1="208.885" y1="128.602" x2="200.565" y2="144.41" stroke="#950019" stroke-width="2"/>
<line x1="208.885" y1="43.7378" x2="200.565" y2="59.5458" stroke="#950019" stroke-width="2"/>
<line x1="208.885" y1="86.1698" x2="200.565" y2="101.978" stroke="#950019" stroke-width="2"/>
<line x1="208.885" y1="1.30577" x2="200.565" y2="17.1138" stroke="#950019" stroke-width="2"/>
</svg>
