<svg width="154" height="121" viewBox="0 0 154 121" fill="none" xmlns="http://www.w3.org/2000/svg">
<line x1="7.35269" y1="108.251" x2="1.32738" y2="119.699" stroke="white" stroke-width="3"/>
<line x1="7.35269" y1="46.7923" x2="1.32738" y2="58.2404" stroke="white" stroke-width="3"/>
<line x1="7.35269" y1="77.5214" x2="1.32738" y2="88.9695" stroke="white" stroke-width="3"/>
<line x1="7.35269" y1="16.0632" x2="1.32738" y2="27.5113" stroke="white" stroke-width="3"/>
<line x1="7.35269" y1="92.886" x2="1.32738" y2="104.334" stroke="white" stroke-width="3"/>
<line x1="7.35269" y1="31.4277" x2="1.32738" y2="42.8758" stroke="white" stroke-width="3"/>
<line x1="7.35269" y1="62.1568" x2="1.32738" y2="73.6049" stroke="white" stroke-width="3"/>
<line x1="7.35269" y1="0.69862" x2="1.32738" y2="12.1467" stroke="white" stroke-width="3"/>
<line x1="61.5805" y1="108.251" x2="55.5552" y2="119.699" stroke="white" stroke-width="3"/>
<line x1="61.5805" y1="46.7923" x2="55.5552" y2="58.2404" stroke="white" stroke-width="3"/>
<line x1="61.5805" y1="77.5214" x2="55.5552" y2="88.9695" stroke="white" stroke-width="3"/>
<line x1="61.5805" y1="16.0632" x2="55.5552" y2="27.5113" stroke="white" stroke-width="3"/>
<line x1="61.5805" y1="92.886" x2="55.5552" y2="104.334" stroke="white" stroke-width="3"/>
<line x1="61.5805" y1="31.4277" x2="55.5552" y2="42.8758" stroke="white" stroke-width="3"/>
<line x1="61.5805" y1="62.1568" x2="55.5552" y2="73.6049" stroke="white" stroke-width="3"/>
<line x1="61.5805" y1="0.69862" x2="55.5552" y2="12.1467" stroke="white" stroke-width="3"/>
<line x1="34.4666" y1="108.251" x2="28.4413" y2="119.699" stroke="white" stroke-width="3"/>
<line x1="34.4666" y1="46.7923" x2="28.4413" y2="58.2404" stroke="white" stroke-width="3"/>
<line x1="34.4666" y1="77.5214" x2="28.4413" y2="88.9695" stroke="white" stroke-width="3"/>
<line x1="34.4666" y1="16.0632" x2="28.4413" y2="27.5113" stroke="white" stroke-width="3"/>
<line x1="34.4666" y1="92.886" x2="28.4413" y2="104.334" stroke="white" stroke-width="3"/>
<line x1="34.4666" y1="31.4277" x2="28.4413" y2="42.8758" stroke="white" stroke-width="3"/>
<line x1="34.4666" y1="62.1568" x2="28.4413" y2="73.6049" stroke="white" stroke-width="3"/>
<line x1="34.4666" y1="0.69862" x2="28.4413" y2="12.1467" stroke="white" stroke-width="3"/>
<line x1="88.6945" y1="108.251" x2="82.6692" y2="119.699" stroke="white" stroke-width="3"/>
<line x1="88.6945" y1="46.7923" x2="82.6692" y2="58.2404" stroke="white" stroke-width="3"/>
<line x1="88.6945" y1="77.5214" x2="82.6692" y2="88.9695" stroke="white" stroke-width="3"/>
<line x1="88.6945" y1="16.0632" x2="82.6692" y2="27.5113" stroke="white" stroke-width="3"/>
<line x1="88.6945" y1="92.886" x2="82.6692" y2="104.334" stroke="white" stroke-width="3"/>
<line x1="88.6945" y1="31.4277" x2="82.6692" y2="42.8758" stroke="white" stroke-width="3"/>
<line x1="88.6945" y1="62.1568" x2="82.6692" y2="73.6049" stroke="white" stroke-width="3"/>
<line x1="88.6945" y1="0.69862" x2="82.6692" y2="12.1467" stroke="white" stroke-width="3"/>
<line x1="133.884" y1="108.251" x2="127.859" y2="119.699" stroke="white" stroke-width="3"/>
<line x1="133.884" y1="46.7923" x2="127.859" y2="58.2404" stroke="white" stroke-width="3"/>
<line x1="133.884" y1="77.5214" x2="127.859" y2="88.9695" stroke="white" stroke-width="3"/>
<line x1="133.884" y1="16.0632" x2="127.859" y2="27.5113" stroke="white" stroke-width="3"/>
<line x1="133.884" y1="92.886" x2="127.859" y2="104.334" stroke="white" stroke-width="3"/>
<line x1="133.884" y1="31.4277" x2="127.859" y2="42.8758" stroke="white" stroke-width="3"/>
<line x1="133.884" y1="62.1568" x2="127.859" y2="73.6049" stroke="white" stroke-width="3"/>
<line x1="133.884" y1="0.69862" x2="127.859" y2="12.1467" stroke="white" stroke-width="3"/>
<line x1="16.3907" y1="108.251" x2="10.3654" y2="119.699" stroke="white" stroke-width="3"/>
<line x1="16.3907" y1="46.7923" x2="10.3654" y2="58.2404" stroke="white" stroke-width="3"/>
<line x1="16.3907" y1="77.5214" x2="10.3654" y2="88.9695" stroke="white" stroke-width="3"/>
<line x1="16.3907" y1="16.0632" x2="10.3654" y2="27.5113" stroke="white" stroke-width="3"/>
<line x1="16.3907" y1="92.886" x2="10.3654" y2="104.334" stroke="white" stroke-width="3"/>
<line x1="16.3907" y1="31.4277" x2="10.3654" y2="42.8758" stroke="white" stroke-width="3"/>
<line x1="16.3907" y1="62.1568" x2="10.3654" y2="73.6049" stroke="white" stroke-width="3"/>
<line x1="16.3907" y1="0.69862" x2="10.3654" y2="12.1467" stroke="white" stroke-width="3"/>
<line x1="70.6185" y1="108.251" x2="64.5932" y2="119.699" stroke="white" stroke-width="3"/>
<line x1="70.6185" y1="46.7923" x2="64.5932" y2="58.2404" stroke="white" stroke-width="3"/>
<line x1="70.6185" y1="77.5214" x2="64.5932" y2="88.9695" stroke="white" stroke-width="3"/>
<line x1="70.6185" y1="16.0632" x2="64.5932" y2="27.5113" stroke="white" stroke-width="3"/>
<line x1="70.6185" y1="92.886" x2="64.5932" y2="104.334" stroke="white" stroke-width="3"/>
<line x1="70.6185" y1="31.4277" x2="64.5932" y2="42.8758" stroke="white" stroke-width="3"/>
<line x1="70.6185" y1="62.1568" x2="64.5932" y2="73.6049" stroke="white" stroke-width="3"/>
<line x1="70.6185" y1="0.69862" x2="64.5932" y2="12.1467" stroke="white" stroke-width="3"/>
<line x1="115.808" y1="108.251" x2="109.783" y2="119.699" stroke="white" stroke-width="3"/>
<line x1="115.808" y1="46.7923" x2="109.783" y2="58.2404" stroke="white" stroke-width="3"/>
<line x1="115.808" y1="77.5214" x2="109.783" y2="88.9695" stroke="white" stroke-width="3"/>
<line x1="115.808" y1="16.0632" x2="109.783" y2="27.5113" stroke="white" stroke-width="3"/>
<line x1="115.808" y1="92.886" x2="109.783" y2="104.334" stroke="white" stroke-width="3"/>
<line x1="115.808" y1="31.4277" x2="109.783" y2="42.8758" stroke="white" stroke-width="3"/>
<line x1="115.808" y1="62.1568" x2="109.783" y2="73.6049" stroke="white" stroke-width="3"/>
<line x1="115.808" y1="0.69862" x2="109.783" y2="12.1467" stroke="white" stroke-width="3"/>
<line x1="43.5046" y1="108.251" x2="37.4793" y2="119.699" stroke="white" stroke-width="3"/>
<line x1="43.5046" y1="46.7923" x2="37.4793" y2="58.2404" stroke="white" stroke-width="3"/>
<line x1="43.5046" y1="77.5214" x2="37.4793" y2="88.9695" stroke="white" stroke-width="3"/>
<line x1="43.5046" y1="16.0632" x2="37.4793" y2="27.5113" stroke="white" stroke-width="3"/>
<line x1="43.5046" y1="92.886" x2="37.4793" y2="104.334" stroke="white" stroke-width="3"/>
<line x1="43.5046" y1="31.4277" x2="37.4793" y2="42.8758" stroke="white" stroke-width="3"/>
<line x1="43.5046" y1="62.1568" x2="37.4793" y2="73.6049" stroke="white" stroke-width="3"/>
<line x1="43.5046" y1="0.69862" x2="37.4793" y2="12.1467" stroke="white" stroke-width="3"/>
<line x1="97.7324" y1="108.251" x2="91.7071" y2="119.699" stroke="white" stroke-width="3"/>
<line x1="97.7324" y1="46.7923" x2="91.7071" y2="58.2404" stroke="white" stroke-width="3"/>
<line x1="97.7324" y1="77.5214" x2="91.7071" y2="88.9695" stroke="white" stroke-width="3"/>
<line x1="97.7324" y1="16.0632" x2="91.7071" y2="27.5113" stroke="white" stroke-width="3"/>
<line x1="97.7324" y1="92.886" x2="91.7071" y2="104.334" stroke="white" stroke-width="3"/>
<line x1="97.7324" y1="31.4277" x2="91.7071" y2="42.8758" stroke="white" stroke-width="3"/>
<line x1="97.7324" y1="62.1568" x2="91.7071" y2="73.6049" stroke="white" stroke-width="3"/>
<line x1="97.7324" y1="0.69862" x2="91.7071" y2="12.1467" stroke="white" stroke-width="3"/>
<line x1="142.922" y1="108.251" x2="136.897" y2="119.699" stroke="white" stroke-width="3"/>
<line x1="142.922" y1="46.7923" x2="136.897" y2="58.2404" stroke="white" stroke-width="3"/>
<line x1="142.922" y1="77.5214" x2="136.897" y2="88.9695" stroke="white" stroke-width="3"/>
<line x1="142.922" y1="16.0632" x2="136.897" y2="27.5113" stroke="white" stroke-width="3"/>
<line x1="142.922" y1="92.886" x2="136.897" y2="104.334" stroke="white" stroke-width="3"/>
<line x1="142.922" y1="31.4277" x2="136.897" y2="42.8758" stroke="white" stroke-width="3"/>
<line x1="142.922" y1="62.1568" x2="136.897" y2="73.6049" stroke="white" stroke-width="3"/>
<line x1="142.922" y1="0.69862" x2="136.897" y2="12.1467" stroke="white" stroke-width="3"/>
<line x1="25.4286" y1="108.251" x2="19.4033" y2="119.699" stroke="white" stroke-width="3"/>
<line x1="25.4286" y1="46.7923" x2="19.4033" y2="58.2404" stroke="white" stroke-width="3"/>
<line x1="25.4286" y1="77.5214" x2="19.4033" y2="88.9695" stroke="white" stroke-width="3"/>
<line x1="25.4286" y1="16.0632" x2="19.4033" y2="27.5113" stroke="white" stroke-width="3"/>
<line x1="25.4286" y1="92.886" x2="19.4033" y2="104.334" stroke="white" stroke-width="3"/>
<line x1="25.4286" y1="31.4277" x2="19.4033" y2="42.8758" stroke="white" stroke-width="3"/>
<line x1="25.4286" y1="62.1568" x2="19.4033" y2="73.6049" stroke="white" stroke-width="3"/>
<line x1="25.4286" y1="0.69862" x2="19.4033" y2="12.1467" stroke="white" stroke-width="3"/>
<line x1="79.6565" y1="108.251" x2="73.6312" y2="119.699" stroke="white" stroke-width="3"/>
<line x1="79.6565" y1="46.7923" x2="73.6312" y2="58.2404" stroke="white" stroke-width="3"/>
<line x1="79.6565" y1="77.5214" x2="73.6312" y2="88.9695" stroke="white" stroke-width="3"/>
<line x1="79.6565" y1="16.0632" x2="73.6312" y2="27.5113" stroke="white" stroke-width="3"/>
<line x1="79.6565" y1="92.886" x2="73.6312" y2="104.334" stroke="white" stroke-width="3"/>
<line x1="79.6565" y1="31.4277" x2="73.6312" y2="42.8758" stroke="white" stroke-width="3"/>
<line x1="79.6565" y1="62.1568" x2="73.6312" y2="73.6049" stroke="white" stroke-width="3"/>
<line x1="79.6565" y1="0.69862" x2="73.6312" y2="12.1467" stroke="white" stroke-width="3"/>
<line x1="124.846" y1="108.251" x2="118.821" y2="119.699" stroke="white" stroke-width="3"/>
<line x1="124.846" y1="46.7923" x2="118.821" y2="58.2404" stroke="white" stroke-width="3"/>
<line x1="124.846" y1="77.5214" x2="118.821" y2="88.9695" stroke="white" stroke-width="3"/>
<line x1="124.846" y1="16.0632" x2="118.821" y2="27.5113" stroke="white" stroke-width="3"/>
<line x1="124.846" y1="92.886" x2="118.821" y2="104.334" stroke="white" stroke-width="3"/>
<line x1="124.846" y1="31.4277" x2="118.821" y2="42.8758" stroke="white" stroke-width="3"/>
<line x1="124.846" y1="62.1568" x2="118.821" y2="73.6049" stroke="white" stroke-width="3"/>
<line x1="124.846" y1="0.69862" x2="118.821" y2="12.1467" stroke="white" stroke-width="3"/>
<line x1="52.5426" y1="108.251" x2="46.5173" y2="119.699" stroke="white" stroke-width="3"/>
<line x1="52.5426" y1="46.7923" x2="46.5173" y2="58.2404" stroke="white" stroke-width="3"/>
<line x1="52.5426" y1="77.5214" x2="46.5173" y2="88.9695" stroke="white" stroke-width="3"/>
<line x1="52.5426" y1="16.0632" x2="46.5173" y2="27.5113" stroke="white" stroke-width="3"/>
<line x1="52.5426" y1="92.886" x2="46.5173" y2="104.334" stroke="white" stroke-width="3"/>
<line x1="52.5426" y1="31.4277" x2="46.5173" y2="42.8758" stroke="white" stroke-width="3"/>
<line x1="52.5426" y1="62.1568" x2="46.5173" y2="73.6049" stroke="white" stroke-width="3"/>
<line x1="52.5426" y1="0.69862" x2="46.5173" y2="12.1467" stroke="white" stroke-width="3"/>
<line x1="106.77" y1="108.251" x2="100.745" y2="119.699" stroke="white" stroke-width="3"/>
<line x1="106.77" y1="46.7923" x2="100.745" y2="58.2404" stroke="white" stroke-width="3"/>
<line x1="106.77" y1="77.5214" x2="100.745" y2="88.9695" stroke="white" stroke-width="3"/>
<line x1="106.77" y1="16.0632" x2="100.745" y2="27.5113" stroke="white" stroke-width="3"/>
<line x1="106.77" y1="92.886" x2="100.745" y2="104.334" stroke="white" stroke-width="3"/>
<line x1="106.77" y1="31.4277" x2="100.745" y2="42.8758" stroke="white" stroke-width="3"/>
<line x1="106.77" y1="62.1568" x2="100.745" y2="73.6049" stroke="white" stroke-width="3"/>
<line x1="106.77" y1="0.69862" x2="100.745" y2="12.1467" stroke="white" stroke-width="3"/>
<line x1="151.96" y1="108.251" x2="145.935" y2="119.699" stroke="white" stroke-width="3"/>
<line x1="151.96" y1="46.7923" x2="145.935" y2="58.2404" stroke="white" stroke-width="3"/>
<line x1="151.96" y1="77.5214" x2="145.935" y2="88.9695" stroke="white" stroke-width="3"/>
<line x1="151.96" y1="16.0632" x2="145.935" y2="27.5113" stroke="white" stroke-width="3"/>
<line x1="151.96" y1="92.886" x2="145.935" y2="104.334" stroke="white" stroke-width="3"/>
<line x1="151.96" y1="31.4277" x2="145.935" y2="42.8758" stroke="white" stroke-width="3"/>
<line x1="151.96" y1="62.1568" x2="145.935" y2="73.6049" stroke="white" stroke-width="3"/>
<line x1="151.96" y1="0.69862" x2="145.935" y2="12.1467" stroke="white" stroke-width="3"/>
</svg>
